<?xml version="1.0" encoding="UTF-8"?> <svg xmlns="http://www.w3.org/2000/svg" width="152" height="69" viewBox="0 0 152 69" fill="none"><path d="M39.1794 5.11579L40.011 3.20059C40.4142 2.29339 41.4726 1.86499 42.3798 2.24299C42.7074 2.39419 42.9846 2.62099 43.161 2.89819L42.8082 2.06659C42.7578 1.96579 42.7074 1.89019 42.657 1.78939C42.1026 0.781391 40.9182 0.0253906 39.1794 0.0253906C37.2642 0.0253906 36.0545 0.932592 35.5505 2.06659L30.4854 13.9106L32.955 19.7066L39.1794 5.11579Z" fill="#009142"></path><path d="M55.6351 36.1107C55.7359 35.9343 55.8115 35.7327 55.8871 35.5311L55.6351 36.1107Z" fill="#C5C2BF"></path><path d="M55.6604 31.8027L55.8872 32.3571C55.8116 32.1555 55.736 31.9791 55.6604 31.8027Z" fill="#C5C2BF"></path><path d="M55.8872 32.3571L55.6604 31.8027L43.161 2.89819C42.9846 2.62099 42.7074 2.39419 42.3798 2.24299C41.4474 1.83979 40.389 2.26819 40.011 3.20059L39.1794 5.11579L53.493 38.2281C53.6442 38.5809 53.745 39.0849 53.745 39.6645C53.745 40.2693 53.619 40.7985 53.4426 41.1765L55.6351 36.1107L55.8871 35.5311C56.0383 35.0523 56.139 34.5237 56.139 33.9441C56.139 33.3645 56.0636 32.8107 55.8872 32.3571Z" fill="#C5C2BF"></path><path d="M28.394 2.89768C28.2176 2.62048 27.9404 2.39368 27.6128 2.24248C26.6804 1.83928 25.622 2.26768 25.244 3.20008L24.4124 5.14048L45.1016 53.8269L47.9744 48.9885L28.394 2.89768Z" fill="#C5C2BF"></path><path d="M29.301 16.6318L15.6174 48.6358L18.0618 54.4318L31.7706 22.4026L29.301 16.6318Z" fill="#009142"></path><path d="M52.1825 41.278L50.3177 36.9688L39.0785 63.0256L38.2469 64.9408C37.8437 65.8731 36.7853 66.2764 35.8781 65.8984C35.5505 65.7472 35.2733 65.5203 35.0969 65.2431L35.4497 66.0748C35.5001 66.1756 35.5505 66.2512 35.6009 66.352C36.1553 67.36 37.3397 68.116 39.0785 68.116C40.9937 68.116 42.2033 67.2088 42.7073 66.0748L52.2077 44.0752C52.3589 43.7224 52.4597 43.2184 52.4597 42.6892C52.4345 42.1348 52.3337 41.6308 52.1825 41.278Z" fill="#D2272C"></path><path d="M53.4426 41.1765C53.619 40.7985 53.745 40.2693 53.745 39.6645C53.745 39.1101 53.6442 38.6061 53.493 38.2281L51.6283 33.9443L50.3177 36.9688L52.1825 41.278C52.3337 41.6308 52.4347 42.1343 52.4347 42.7139C52.4347 43.2683 52.3339 43.7471 52.1827 44.0999L53.4426 41.1765Z" fill="#B9000C"></path><path d="M24.4124 5.1156L25.244 3.1752C25.6472 2.268 26.7056 1.8396 27.6128 2.2176C27.9404 2.3688 28.2176 2.5956 28.394 2.8728L28.0412 2.0412C27.9908 1.9404 27.9404 1.8648 27.89 1.764C27.3356 0.756 26.1512 0 24.4124 0C22.4972 0 21.2876 0.907198 20.7836 2.0412L15.668 13.9608L18.1124 19.7568L24.4124 5.1156Z" fill="#009A94"></path><path d="M5.15953 17.7908C4.68073 16.6316 3.34513 16.1024 2.18593 16.5812C1.88353 16.7072 1.63153 16.8836 1.42993 17.0852C0.825132 17.7152 0.598332 18.6728 0.976332 19.5548L7.07473 33.9944L9.54433 28.1984L5.15953 17.7908Z" fill="#C5C2BF"></path><path d="M14.4329 51.3828L8.66215 64.89C8.15815 66.0492 8.71255 67.3848 9.84655 67.8636C10.1489 67.9896 10.4513 68.04 10.7285 68.04C11.6105 68.04 12.4421 67.536 12.8201 66.654L16.9025 57.1788L14.4329 51.3828Z" fill="#009142"></path><path d="M12.0139 34.0193L9.54434 39.8153L20.3047 65.2673C20.4811 65.5445 20.7583 65.7713 21.0859 65.9225C21.9931 66.3257 23.0767 65.8973 23.4547 64.9649L24.2863 63.0245L12.0139 34.0193Z" fill="#C5C2BF"></path><path d="M44.1439 16.6074L30.4099 48.7122L32.8795 54.5082L46.6135 22.353L44.1439 16.6074Z" fill="#E94E07"></path><path d="M29.2506 51.458L24.3114 63.0248L23.4798 64.9652C23.0766 65.8976 22.0182 66.3008 21.111 65.9228C20.7834 65.7716 20.5314 65.5448 20.3298 65.2676L20.6826 66.0992C20.733 66.2 20.7834 66.2756 20.8338 66.3764C21.3882 67.3844 22.5726 68.1404 24.3114 68.1404C26.2266 68.1404 27.4362 67.2332 27.9402 66.0992L31.7202 57.254L29.2506 51.458Z" fill="#E94E07"></path><path d="M26.7811 34.0448L24.3115 39.8408L35.0971 65.2676C35.2735 65.5448 35.5507 65.7716 35.8783 65.9228C36.7855 66.326 37.8691 65.8976 38.2471 64.9652L39.0787 63.05L26.7811 34.0448Z" fill="#C5C2BF"></path><path d="M14.5086 16.707L0.925819 48.3834C0.421819 49.5426 0.976219 50.8782 2.11022 51.357C2.41262 51.483 2.71502 51.5334 2.99222 51.5334C3.87422 51.5334 4.70582 51.0042 5.08382 50.1474L16.953 22.4778L14.5086 16.707Z" fill="#009A94"></path><path d="M28.0159 19.681L30.4603 25.4518L31.7706 22.4026L29.301 16.6318L28.0159 19.681Z" fill="#00623F"></path><path d="M42.8333 19.6566L45.3281 25.4022L46.6135 22.353L44.1439 16.6074L42.8333 19.6566Z" fill="#D54115"></path><path d="M53.4426 41.1765C53.619 40.7985 53.745 40.2693 53.745 39.6645C53.745 39.1101 53.6442 38.6061 53.493 38.2281L51.6283 33.9443L50.3177 36.9688L52.1825 41.278C52.3337 41.6308 52.4347 42.1343 52.4347 42.7139C52.4347 43.2683 52.3339 43.7471 52.1827 44.0999L53.4426 41.1765Z" fill="#B9000C"></path><path d="M13.1479 54.432L15.5923 60.228L16.9025 57.1788L14.4329 51.3828L13.1479 54.432Z" fill="#00623F"></path><path d="M27.9402 54.5072L30.3846 60.3032L31.695 57.254L29.2506 51.458L27.9402 54.5072Z" fill="#D54115"></path><path d="M13.1982 19.7562L15.6678 25.527L16.953 22.503L14.5086 16.707L13.1982 19.7562Z" fill="#007263"></path><path d="M12.9462 1.38561C12.4674 0.226409 11.1318 -0.302792 9.97256 0.176008C9.67016 0.302008 9.41816 0.478408 9.21656 0.680008C8.61176 1.31001 8.41016 2.26761 8.76296 3.14961L21.8418 34.0196L24.3114 28.2236L12.9462 1.38561Z" fill="#C5C2BF"></path><path d="M74.6862 13.6458H74.661L73.0986 18.1062H76.2486L74.6862 13.6458ZM80.457 22.8942H77.9118L76.7778 19.7694H72.5442L71.4354 22.8942H68.991L73.4766 11.2266H75.9462L80.457 22.8942Z" fill="#005060"></path><path d="M94.8965 22.8944H92.6033V18.182C92.6033 16.8716 92.0741 16.3424 91.0913 16.3424C90.3353 16.3424 89.7809 16.7204 89.4785 17.048C89.5037 17.2748 89.5037 17.5016 89.5037 17.7536V22.9196H87.2105V18.2072C87.2105 16.8968 86.6813 16.3676 85.6985 16.3676C84.9425 16.3676 84.3881 16.8212 84.1109 17.1488V22.9196H81.8177V14.5784H84.0101V15.4604H84.0353C84.3629 15.032 85.1693 14.3516 86.5805 14.3516C87.6641 14.3516 88.5209 14.7296 89.0249 15.5864C89.4533 15.1076 90.3857 14.3516 91.8977 14.3516C93.7121 14.3516 94.8965 15.3596 94.8965 17.7284V22.8944Z" fill="#005060"></path><path d="M98.7271 17.8796H102.053C102.028 16.8716 101.575 16.2164 100.491 16.2164C99.5587 16.2164 98.8531 16.8464 98.7271 17.8796ZM100.466 14.3516C102.86 14.3516 104.095 15.7376 104.095 18.5348V19.316H98.7019C98.8531 20.576 99.5839 21.206 100.995 21.206C102.356 21.206 103.036 20.6516 103.339 20.3996L104.095 21.9116C103.666 22.2896 102.759 23.096 100.768 23.096C98.1727 23.096 96.4591 21.6848 96.4591 18.6356C96.4591 15.8384 98.2735 14.3516 100.466 14.3516Z" fill="#005060"></path><path d="M111.05 16.3678C111.025 16.3678 110.823 16.3426 110.621 16.3426C109.487 16.3426 108.807 16.8718 108.429 17.5018V22.8946H106.136V14.5534H108.328V15.8386H108.353C108.681 15.1078 109.286 14.377 111.05 14.377V16.3678Z" fill="#005060"></path><path d="M114.88 22.894H112.587V14.5528H114.88V22.894ZM114.905 12.5116V12.562C114.905 13.2172 114.477 13.6204 113.771 13.6204C113.041 13.6204 112.612 13.2424 112.612 12.562V12.5116C112.612 11.8564 113.041 11.4532 113.771 11.4532C114.477 11.4532 114.905 11.8564 114.905 12.5116Z" fill="#005060"></path><path d="M94.4429 39.8035H92.1497V31.4623H94.4429V39.8035ZM94.4429 29.4463V29.4967C94.4429 30.1519 94.0145 30.5551 93.3089 30.5551C92.5781 30.5551 92.1497 30.1771 92.1497 29.4967V29.4463C92.1497 28.7911 92.5781 28.3879 93.3089 28.3879C94.0145 28.3627 94.4429 28.7659 94.4429 29.4463Z" fill="#005060"></path><path d="M122.919 16.8464C122.592 16.6196 122.113 16.3172 121.231 16.3172C119.92 16.3172 118.812 17.048 118.812 18.7112C118.812 20.3744 119.769 21.1304 121.206 21.1304C122.214 21.1304 122.718 20.828 123.02 20.6264L123.65 22.3148C123.171 22.6424 122.39 23.096 120.853 23.096C118.358 23.096 116.518 21.7352 116.518 18.7364C116.518 15.7376 118.761 14.3516 121.029 14.3516C122.541 14.3516 123.272 14.78 123.751 15.1076L122.919 16.8464Z" fill="#005060"></path><path d="M130 20.7272V19.442C130 19.442 129.496 19.4168 128.967 19.4168C127.783 19.4168 127.228 19.7444 127.228 20.3996C127.228 20.9792 127.606 21.3068 128.337 21.3068C129.244 21.332 129.748 20.9792 130 20.7272ZM133.352 22.844C133.226 22.8944 132.848 23.0708 132.218 23.0708C131.336 23.0708 130.681 22.7684 130.303 22.1132C129.9 22.592 129.144 23.1212 127.758 23.1212C125.994 23.1212 125.011 22.1888 125.011 20.702C125.011 18.9632 126.447 18.0308 128.69 18.0308C129.396 18.0308 130 18.0812 130 18.0812V17.9552C130 16.8212 129.496 16.292 128.287 16.292C127.128 16.292 126.397 16.8464 126.044 17.1992L125.086 15.7376C125.59 15.2084 126.649 14.3516 128.564 14.3516C131.16 14.3516 132.218 15.7124 132.218 17.9804V20.3492C132.218 21.0548 132.445 21.2816 132.924 21.2816C133.15 21.2816 133.302 21.2312 133.352 21.206V22.844Z" fill="#005060"></path><path d="M136.855 15.4604H136.88C137.208 15.0824 137.989 14.3516 139.526 14.3516C141.315 14.3516 142.525 15.3596 142.525 17.7284V22.8944H140.232V18.182C140.232 16.8716 139.702 16.3424 138.669 16.3424C137.838 16.3424 137.258 16.8212 136.981 17.1236V22.8944H134.688V14.5532H136.855V15.4604Z" fill="#005060"></path><path d="M74.6862 30.555H74.661L73.0986 35.0154H76.2486L74.6862 30.555ZM80.457 39.8034H77.9118L76.7778 36.6786H72.5442L71.4354 39.8034H68.991L73.4766 28.1358H75.9462L80.457 39.8034Z" fill="#005060"></path><path d="M85.2956 39.7285C85.1948 39.8041 84.8168 39.9553 84.1616 39.9553C82.6496 39.9553 81.7928 39.3001 81.7928 37.3093V27.8341H84.086V37.0825C84.086 37.9393 84.3632 38.1409 84.8924 38.1409C85.1192 38.1409 85.2704 38.0905 85.3208 38.0653V39.7285H85.2956Z" fill="#005060"></path><path d="M90.4111 39.7285C90.3103 39.8041 89.9323 39.9553 89.2771 39.9553C87.7651 39.9553 86.9083 39.3001 86.9083 37.3093V27.8341H89.2015V37.0825C89.2015 37.9393 89.4787 38.1409 90.0079 38.1409C90.2347 38.1409 90.3859 38.0905 90.4363 38.0653V39.7285H90.4111Z" fill="#005060"></path><path d="M101.423 37.6366V36.3514C101.423 36.3514 100.919 36.3262 100.39 36.3262C99.2059 36.3262 98.6515 36.6538 98.6515 37.309C98.6515 37.8886 99.0295 38.2162 99.7603 38.2162C100.667 38.2414 101.171 37.8886 101.423 37.6366ZM104.8 39.7282C104.674 39.7786 104.296 39.955 103.666 39.955C102.784 39.955 102.129 39.6526 101.751 38.9974C101.348 39.4762 100.592 40.0054 99.2059 40.0054C97.4419 40.0054 96.4591 39.073 96.4591 37.5862C96.4591 35.8474 97.8955 34.915 100.138 34.915C100.844 34.915 101.449 34.9654 101.449 34.9654V34.8394C101.449 33.7054 100.945 33.1762 99.7351 33.1762C98.5759 33.1762 97.8451 33.7306 97.4923 34.0834L96.5599 32.6722C97.0639 32.143 98.1223 31.2862 100.037 31.2862C102.633 31.2862 103.691 32.647 103.691 34.915V37.2838C103.691 37.9894 103.918 38.2162 104.397 38.2162C104.624 38.2162 104.775 38.1658 104.825 38.1406V39.7282H104.8Z" fill="#005060"></path><path d="M108.53 32.3696C108.857 31.9916 109.639 31.2608 111.176 31.2608C112.965 31.2608 114.175 32.2688 114.175 34.6376V39.8036H111.881V35.0912C111.881 33.7808 111.352 33.2516 110.319 33.2516C109.487 33.2516 108.908 33.7304 108.631 34.0328V39.8036H106.337V31.4624H108.53V32.3696Z" fill="#005060"></path><path d="M122.163 33.7556C121.835 33.5288 121.357 33.2264 120.475 33.2264C119.164 33.2264 118.055 33.9572 118.055 35.6204C118.055 37.2836 119.013 38.0396 120.449 38.0396C121.432 38.0396 121.961 37.7372 122.264 37.5356L122.894 39.224C122.415 39.5516 121.634 40.0052 120.097 40.0052C117.602 40.0052 115.762 38.6444 115.762 35.6456C115.762 32.6468 118.005 31.2608 120.273 31.2608C121.785 31.2608 122.491 31.6892 122.995 32.0168L122.163 33.7556Z" fill="#005060"></path><path d="M125.918 34.7888H129.244C129.219 33.7808 128.766 33.1256 127.682 33.1256C126.75 33.1256 126.044 33.7556 125.918 34.7888ZM127.657 31.2608C130.051 31.2608 131.286 32.6468 131.286 35.444V36.2252H125.893C126.044 37.4852 126.775 38.09 128.186 38.09C129.547 38.09 130.227 37.5356 130.53 37.2836L131.286 38.7956C130.857 39.1736 129.95 39.98 127.984 39.98C125.389 39.98 123.675 38.5688 123.675 35.5196C123.65 32.7476 125.464 31.2608 127.657 31.2608Z" fill="#005060"></path><path d="M81.1373 56.7126H78.8189V48.5982H78.7937L76.0217 53.109H74.1821L71.3849 48.5982H71.3597V56.7126H69.0413V45.045H71.7377L75.0893 50.4126H75.1145L78.4661 45.045H81.1373V56.7126Z" fill="#005060"></path><path d="M91.0663 56.7124H88.8991V55.8304H88.8739C88.5715 56.2084 87.9163 56.914 86.2279 56.914C84.4387 56.914 83.2291 55.906 83.2291 53.5372V48.3712H85.5223V53.0836C85.5223 54.4444 86.0011 54.9484 87.0847 54.9484C87.9667 54.9484 88.4959 54.4696 88.7731 54.1672V48.3964H91.0663V56.7124Z" fill="#005060"></path><path d="M98.5256 50.6396C98.1476 50.3624 97.442 49.934 96.3836 49.934C95.552 49.934 95.174 50.2112 95.174 50.5892C95.174 50.9924 95.4512 51.2192 96.2828 51.446L96.8624 51.6224C98.4248 52.1012 99.4076 52.7816 99.4076 54.2432C99.4076 55.8056 98.1728 56.8892 95.93 56.8892C94.166 56.8892 93.2588 56.2592 92.8304 55.9316L93.536 54.1928C93.914 54.5204 94.67 55.0496 95.8292 55.0496C96.7868 55.0496 97.1648 54.7472 97.1648 54.344C97.1648 53.8904 96.8372 53.6888 95.9552 53.3864L95.3756 53.21C93.9392 52.7816 92.9564 52.076 92.9564 50.6648C92.9564 49.1024 94.3676 48.17 96.2828 48.17C97.8704 48.17 98.702 48.674 99.1808 48.9764L98.5256 50.6396Z" fill="#005060"></path><path d="M102.86 51.698H106.186C106.161 50.69 105.708 50.0348 104.624 50.0348C103.717 50.0348 103.011 50.6648 102.86 51.698ZM104.624 48.17C107.018 48.17 108.253 49.556 108.253 52.3532V53.1344H102.86C103.011 54.3944 103.742 54.9992 105.153 54.9992C106.514 54.9992 107.194 54.4448 107.497 54.1928L108.253 55.7048C107.824 56.0828 106.917 56.8892 104.926 56.8892C102.331 56.8892 100.617 55.478 100.617 52.4288C100.617 49.6568 102.432 48.17 104.624 48.17Z" fill="#005060"></path><path d="M117.677 56.7124H115.51V55.8304H115.485C115.183 56.2084 114.527 56.914 112.839 56.914C111.05 56.914 109.84 55.906 109.84 53.5372V48.3712H112.133V53.0836C112.133 54.4444 112.612 54.9484 113.696 54.9484C114.578 54.9484 115.107 54.4696 115.384 54.1672V48.3964H117.677V56.7124Z" fill="#005060"></path><path d="M132.772 56.713H130.479V52.0006C130.479 50.6902 129.925 50.161 128.967 50.161C128.211 50.161 127.657 50.539 127.354 50.8666C127.379 51.0934 127.379 51.3202 127.379 51.5722V56.7382H125.111V52.0258C125.111 50.7154 124.557 50.1862 123.599 50.1862C122.843 50.1862 122.289 50.6398 122.012 50.9674V56.7382H119.719V48.397H121.886V49.3042H121.911C122.239 48.8758 123.045 48.1954 124.456 48.1954C125.54 48.1954 126.397 48.5734 126.901 49.4302C127.329 48.9514 128.261 48.1954 129.773 48.1954C131.613 48.1954 132.772 49.2034 132.772 51.5722V56.713Z" fill="#005060"></path><path d="M139.929 50.6396C139.551 50.3624 138.845 49.934 137.787 49.934C136.955 49.934 136.577 50.2112 136.577 50.5892C136.577 50.9924 136.855 51.2192 137.686 51.446L138.266 51.6224C139.828 52.1012 140.811 52.7816 140.811 54.2432C140.811 55.8056 139.576 56.8892 137.333 56.8892C135.569 56.8892 134.662 56.2592 134.234 55.9316L134.939 54.1928C135.317 54.5204 136.073 55.0496 137.233 55.0496C138.19 55.0496 138.568 54.7472 138.568 54.344C138.568 53.8904 138.215 53.6888 137.359 53.3864L136.779 53.21C135.343 52.7816 134.36 52.076 134.36 50.6648C134.36 49.1024 135.771 48.17 137.686 48.17C139.274 48.17 140.105 48.674 140.584 48.9764L139.929 50.6396Z" fill="#005060"></path><path d="M141.164 33.2518C140.106 33.2518 139.274 33.9826 139.274 35.671C139.274 37.3342 140.08 38.065 141.164 38.065C142.273 38.065 143.029 37.309 143.029 35.671C143.029 33.9826 142.248 33.2518 141.164 33.2518ZM141.164 40.0306C138.946 40.0306 136.956 38.6698 136.956 35.671C136.956 32.6722 138.946 31.2862 141.164 31.2862C143.407 31.2862 145.398 32.647 145.398 35.671C145.398 38.6698 143.382 40.0306 141.164 40.0306Z" fill="#005060"></path><path d="M151.975 29.7235C151.874 29.6983 151.647 29.6227 151.269 29.6227C150.412 29.6227 149.883 29.9503 149.883 30.9835V31.4875H151.975V33.3523H149.883V39.8035H147.59V33.3775H146.532V31.5127H147.59V31.0591C147.59 28.7659 148.976 27.7579 150.891 27.7579C151.496 27.7579 151.849 27.8587 152 27.9091V29.7235H151.975Z" fill="#005060"></path></svg> 