<?xml version="1.0" encoding="UTF-8"?> <svg xmlns="http://www.w3.org/2000/svg" width="190" height="46" viewBox="0 0 190 46" fill="none"><path d="M40.6402 19.353C39.3475 19.9993 37.1015 20.5028 34.659 20.5028C27.8922 20.5028 24.4677 16.8534 24.4677 10.9008C24.4677 4.78028 27.9779 1.40937 33.7341 1.40937C35.1946 1.40937 36.6837 1.66291 37.5514 2.0557L37.9728 1.54864H40.3581V6.79782H37.2122L36.8479 4.74814C36.4837 4.55174 35.3874 4.35535 34.4055 4.35535C31.4023 4.35535 29.4919 5.73013 29.4919 10.8972C29.4919 15.8393 31.5416 17.5497 34.9375 17.5497C35.7231 17.5497 36.8194 17.3819 37.155 17.2426L37.5193 15.2215H40.6366V19.353H40.6402Z" fill="black"></path><path d="M49.8459 20.5021C45.1002 20.5021 42.5184 17.6954 42.5184 13.1461C42.5184 8.59684 45.1287 5.79014 49.8459 5.79014C54.5916 5.79014 57.1733 8.59684 57.1733 13.1461C57.1733 17.6954 54.563 20.5021 49.8459 20.5021ZM49.8459 8.71111C47.7962 8.71111 47.0392 9.8895 47.0392 13.1461C47.0392 16.3742 47.8248 17.5526 49.8459 17.5526C51.8956 17.5526 52.6526 16.3742 52.6526 13.1461C52.6526 9.89307 51.8956 8.71111 49.8459 8.71111Z" fill="black"></path><path d="M58.3234 20.2245V17.8392H59.7267L59.9517 17.6142V3.18072L59.7267 2.95575H58.0984V0.57041H64.3296V17.6142L64.5545 17.8392H66.2114V20.2245H58.3234Z" fill="black"></path><path d="M74.3814 20.5021C69.6357 20.5021 67.054 17.6954 67.054 13.1461C67.054 8.59684 69.6643 5.79014 74.3814 5.79014C79.1271 5.79014 81.7088 8.59684 81.7088 13.1461C81.7088 17.6954 79.0985 20.5021 74.3814 20.5021ZM74.3814 8.71111C72.3317 8.71111 71.5747 9.8895 71.5747 13.1461C71.5747 16.3742 72.3603 17.5526 74.3814 17.5526C76.4311 17.5526 77.1881 16.3742 77.1881 13.1461C77.1881 9.89307 76.4311 8.71111 74.3814 8.71111Z" fill="black"></path><path d="M93.8644 9.61238C93.5288 9.52668 92.936 9.47312 92.4325 9.47312C91.3363 9.47312 90.1007 9.69808 89.3151 10.1194V17.6147L89.5401 17.8397H91.3648V20.225H83.3089V17.8397H84.7123L84.9372 17.6147V8.68752L84.7123 8.46256H83.0554V6.07722H88.8116C88.9795 6.24505 89.0652 6.58428 89.0652 7.03064C89.0652 7.31274 89.008 7.95907 88.9259 8.37686H89.1794C90.3293 6.27004 91.397 5.79512 92.6039 5.79512C93.1931 5.79512 93.643 5.90581 93.9787 6.10578L93.8644 9.61238Z" fill="black"></path><path d="M107.169 20.4486C105.455 20.4486 104.391 19.9701 103.745 18.8203H103.549C102.342 19.9165 101.02 20.5057 99.367 20.5057C96.5032 20.5057 94.8177 19.0738 94.8177 16.6027C94.8177 13.796 96.6425 12.2784 101.445 12.2784H102.934V11.35C102.934 9.72167 102.259 9.18961 99.7598 9.18961C98.4136 9.18961 96.7853 9.41457 95.7997 9.66811L95.689 6.52217C96.7853 6.07224 98.5529 5.79014 100.181 5.79014C104.73 5.79014 107.227 7.47559 107.227 11.3214V17.5812C107.48 17.8061 107.844 17.8883 108.351 17.8883C108.605 17.8883 108.912 17.8597 109.08 17.8311V20.0772C108.744 20.2807 107.873 20.4486 107.169 20.4486ZM102.931 14.4102H101.47C99.392 14.4102 98.9992 14.8602 98.9992 16.3206C98.9992 17.5562 99.3349 18.0061 101.049 18.0061C101.695 18.0061 102.452 17.8954 102.931 17.6954V14.4102Z" fill="black"></path><path d="M125.67 20.2245H119.943C119.803 20.0567 119.689 19.6924 119.689 19.2139C119.689 19.0461 119.689 18.5962 119.746 18.3712H119.493C118.568 19.8603 117.247 20.5066 115.59 20.5066C112.276 20.5066 109.862 18.2891 109.862 13.2363C109.862 8.01568 112.419 5.7946 115.647 5.7946C117.247 5.7946 118.371 6.2731 119.239 7.25509H119.436V3.18072L119.211 2.95575H117.554V0.57041H123.813V17.6142L124.038 17.8392H125.667V20.2245H125.67ZM117.275 8.93697C115.336 8.93697 114.326 9.69399 114.326 13.4291C114.326 16.5751 115.168 17.5856 117.104 17.5856C118.004 17.5856 118.929 17.25 119.436 16.7715V9.4726C118.989 9.16193 118.089 8.93697 117.275 8.93697Z" fill="black"></path><path d="M133.869 20.5021C129.123 20.5021 126.542 17.6954 126.542 13.1461C126.542 8.59684 129.152 5.79014 133.869 5.79014C138.615 5.79014 141.196 8.59684 141.196 13.1461C141.196 17.6954 138.586 20.5021 133.869 20.5021ZM133.869 8.71111C131.819 8.71111 131.062 9.8895 131.062 13.1461C131.062 16.3742 131.848 17.5526 133.869 17.5526C135.919 17.5526 136.676 16.3742 136.676 13.1461C136.676 9.89307 135.919 8.71111 133.869 8.71111Z" fill="black"></path><path d="M32.5129 45.2887H24.0321V42.9034H25.5212L25.7461 42.6784V29.2305L25.5212 29.0056H23.7786V26.6202H33.1557C38.2085 26.6202 40.2582 28.8377 40.2582 32.3765C40.2582 36.2794 37.6478 38.1613 32.7915 38.1613H30.4597V42.682L30.7132 42.907H32.5094V45.2887H32.5129ZM32.6522 35.4903C34.8983 35.4903 35.6553 34.4511 35.6553 32.3729C35.6553 30.3518 34.8697 29.3127 32.6522 29.3127H30.4632V35.4903H32.6522Z" fill="black"></path><path d="M52.7527 45.2882C52.5849 45.1204 52.4992 44.7526 52.4992 44.4169C52.4992 44.1348 52.5563 43.492 52.6385 43.1814H52.4135C50.9816 44.949 49.5497 45.5667 47.7249 45.5667C44.7754 45.5667 43.065 43.9955 43.065 40.4854V33.7507L42.84 33.5257H41.2117V31.1368H47.4428V40.289C47.4428 41.8352 47.9749 42.3101 49.7461 42.3101C50.6995 42.3101 51.71 42.0565 52.2457 41.803V33.7507L52.0207 33.5257H50.3067V31.1368H56.6236V42.6779L56.8485 42.9028H58.5054V45.2882H52.7527Z" fill="black"></path><path d="M60.5552 28.2442L60.3302 28.0192H58.7019V25.6339H64.9367V32.7078H65.133C66.2007 31.2473 67.4363 30.8545 69.0932 30.8545C72.2641 30.8545 74.5102 33.0185 74.5102 37.9855C74.5102 43.349 71.757 45.5665 68.1933 45.5665C66.5078 45.5665 65.2723 45.0594 64.2903 44.0239H64.0939L63.6154 45.288H60.5552V28.2442ZM67.097 42.7598C69.036 42.7598 70.0466 42.0849 70.0466 38.2962C70.0466 35.1253 69.1753 34.1111 67.3506 34.1111C66.4507 34.1111 65.4687 34.4468 64.9367 34.9539V42.2527C65.358 42.5634 66.34 42.7598 67.097 42.7598Z" fill="black"></path><path d="M75.6601 45.288V42.9026H77.0635L77.2885 42.6777V28.2442L77.0635 28.0192H75.4352V25.6339H81.6664V42.6777L81.8913 42.9026H83.5482V45.288H75.6601Z" fill="black"></path><path d="M85.0798 45.2883V42.903H86.4832L86.7081 42.678V33.7508L86.4832 33.5258H84.8263V31.1369H91.086V42.678L91.311 42.903H92.9393V45.2883H85.0798ZM86.7653 29.3979V25.8342H90.7504V29.3979H86.7653Z" fill="black"></path><path d="M104.817 34.5365C104.256 34.283 102.935 34.058 101.981 34.058C99.4817 34.058 98.3605 34.9579 98.3605 38.2681C98.3605 41.3854 99.5389 42.3674 102.01 42.3674C103.078 42.3674 104.367 42.0568 104.984 41.7497L105.124 44.6706C104.195 45.2027 102.567 45.5705 101.221 45.5705C96.5322 45.5705 93.8076 42.8745 93.8076 38.2716C93.8076 33.5259 96.6429 30.8585 101.446 30.8585C102.542 30.8585 104.17 31.0835 105.013 31.3906L104.817 34.5365Z" fill="black"></path><path d="M128.288 45.2887C127.445 45.0638 126.434 44.0532 125.059 41.5822L123.01 38.072H121.046V42.6749L121.299 42.8998H122.899V45.2852H114.615V42.8998H116.104L116.329 42.6749V29.2305L116.104 29.0056H114.361V26.6202H123.963C129.102 26.6202 131.094 28.8663 131.094 32.2086C131.094 34.594 129.719 36.308 127.555 37.0936L129.409 39.9574C130.926 42.3428 131.516 42.907 132.751 42.907V45.2923H128.288V45.2887ZM123.374 35.5474C125.759 35.5474 126.463 34.4797 126.463 32.43C126.463 30.4089 125.788 29.3127 123.431 29.3127H121.046V35.5438H123.374V35.5474Z" fill="black"></path><path d="M146.003 45.513C144.289 45.513 143.225 45.0345 142.578 43.8847H142.382C141.175 44.981 139.854 45.5702 138.2 45.5702C135.337 45.5702 133.651 44.1382 133.651 41.6672C133.651 38.8605 135.476 37.3429 140.279 37.3429H141.768V36.4144C141.768 34.7861 141.093 34.2541 138.593 34.2541C137.247 34.2541 135.619 34.479 134.633 34.7326L134.522 31.5866C135.619 31.1367 137.386 30.8546 139.015 30.8546C143.564 30.8546 146.06 32.54 146.06 36.3859V42.6456C146.313 42.8706 146.678 42.9527 147.185 42.9527C147.438 42.9527 147.745 42.9241 147.913 42.8956V45.1417C147.574 45.3452 146.703 45.513 146.003 45.513ZM141.761 39.4783H140.3C138.222 39.4783 137.829 39.9282 137.829 41.3887C137.829 42.6242 138.165 43.0741 139.879 43.0741C140.525 43.0741 141.282 42.9634 141.761 42.7635V39.4783Z" fill="black"></path><path d="M164.5 45.288H158.772C158.633 45.1201 158.519 44.7523 158.519 44.2774C158.519 44.1096 158.519 43.6597 158.576 43.4347H158.322C157.397 44.9237 156.076 45.5701 154.419 45.5701C151.105 45.5701 148.692 43.3526 148.692 38.2998C148.692 33.0792 151.248 30.8581 154.476 30.8581C156.076 30.8581 157.201 31.3366 158.069 32.3186H158.265V28.2442L158.04 28.0192H156.383V25.6339H162.643V42.6777L162.868 42.9026H164.496V45.288H164.5ZM156.105 34.0004C154.166 34.0004 153.155 34.7575 153.155 38.4926C153.155 41.6385 153.998 42.6491 155.933 42.6491C156.833 42.6491 157.758 42.3134 158.265 41.8349V34.5361C157.819 34.2254 156.919 34.0004 156.105 34.0004Z" fill="black"></path><path d="M166.06 45.2883V42.903H167.464L167.688 42.678V33.7508L167.464 33.5258H165.807V31.1369H172.066V42.678L172.291 42.903H173.92V45.2883H166.06ZM167.746 29.3979V25.8342H171.731V29.3979H167.746Z" fill="black"></path><path d="M182.119 45.5705C177.373 45.5705 174.791 42.7638 174.791 38.2145C174.791 33.6652 177.401 30.8585 182.119 30.8585C186.864 30.8585 189.446 33.6652 189.446 38.2145C189.446 42.7602 186.836 45.5705 182.119 45.5705ZM182.119 33.7759C180.069 33.7759 179.312 34.9543 179.312 38.2109C179.312 41.439 180.097 42.6174 182.119 42.6174C184.168 42.6174 184.925 41.439 184.925 38.2109C184.929 34.9579 184.168 33.7759 182.119 33.7759Z" fill="black"></path><path d="M9.7592 19.1277C8.0559 16.2852 9.28428 13.6499 9.28428 13.6499L14.4049 13.6428V0.569824L0 0.587679C0 0.587679 0.0214253 11.3574 0.0214253 14.5391C0.0214253 17.7207 2.46748 22.5486 7.74523 23.0592C13.0266 23.5698 14.9013 23.6305 14.9013 23.6305L15.544 22.2593C15.5476 22.2593 11.4625 21.9701 9.7592 19.1277ZM10.6305 8.53287C11.3625 8.53287 11.9589 9.12921 11.9589 9.86124C11.9624 10.5968 11.3661 11.1896 10.6269 11.1932C9.8949 11.1932 9.29856 10.5968 9.30213 9.86481C9.29856 9.12564 9.89847 8.5293 10.6305 8.53287Z" fill="#F26522"></path></svg> 