<?xml version="1.0" encoding="UTF-8"?> <svg xmlns="http://www.w3.org/2000/svg" width="64" height="65" viewBox="0 0 64 65" fill="none"><path fill-rule="evenodd" clip-rule="evenodd" d="M57.5038 6.47086C57.6441 6.49616 57.6832 6.24318 57.7649 6.08679C58.2754 5.10016 59.0528 4.11238 59.9163 3.43049C60.9237 2.63704 62.1587 2.01148 63.6996 1.82519C63.7053 2.07818 63.4466 2.13452 63.3075 2.24377C62.3461 2.99694 61.4642 4.12273 60.796 5.24851C60.0106 6.57439 59.4276 8.13136 59.101 9.96435C60.7431 9.9655 61.5423 9.06511 62.6876 8.53268C62.4071 10.5979 61.5573 12.0675 60.1774 13.0747C59.7415 13.3921 59.1769 13.783 58.6445 13.8072C58.3938 13.8187 58.0718 13.6922 57.7648 13.6324C56.8388 13.4534 55.9018 13.337 54.9601 13.284C53.6009 13.2173 52.2923 13.2506 51.2758 13.7727C50.3915 11.0244 51.2528 7.92647 52.612 6.43605C53.3388 5.64261 54.1667 4.9216 54.6991 3.92001C55.2522 2.88162 55.4673 1.67309 55.6765 0.217264C55.6744 0.167818 55.6731 0.118371 55.7111 0.11377C55.9318 0.132168 56.3458 0.450695 56.5252 0.671464C57.0875 1.36486 57.6234 3.00352 57.6981 4.30519C57.7418 5.0331 57.6751 5.76557 57.5026 6.47048L57.5038 6.47086Z" fill="#DD2F32"></path><path d="M48.5362 14.5851C48.5362 14.5357 48.7121 14.4862 48.7512 14.4805C52.5919 14.8852 57.1018 14.7714 60.9563 14.4805V16.2318C59.2429 16.2571 57.8861 16.3019 57.2962 17.2471C56.9086 17.8681 56.6741 19.1387 56.6741 20.3634V45.4404C56.6741 50.2309 56.5487 54.658 54.8676 57.803C54.4734 58.546 54.026 59.2597 53.5291 59.9383C53.0415 60.5984 52.5195 61.2504 51.925 61.8299C51.1108 62.6234 50.1587 63.5295 48.7857 63.8963C48.3568 64.0113 47.5749 64.1205 47.2816 63.8963C46.8769 63.5858 47.0057 62.2795 47.0482 61.5505C47.085 60.9238 47.2184 59.8406 47.7152 59.6923C48.0256 59.6014 48.5511 59.9866 48.9479 60.0786C49.5228 60.2132 50.3392 60.2511 50.9452 60.0441C52.585 59.4864 52.7046 56.7497 52.7046 54.336C52.7046 43.7098 52.7149 33.171 52.7149 22.5355C52.7149 20.2484 52.9047 17.5415 51.634 16.7573C50.882 16.2939 49.8206 16.3088 48.5362 16.2329V14.5851Z" fill="black"></path><path d="M25.6404 43.4766C25.9176 42.82 26.3695 42.0714 26.6409 41.4459C26.6673 41.3884 26.8168 41.2309 26.6754 41.1653C26.5592 41.0894 26.4546 40.9997 26.3074 40.9549C24.502 42.1623 22.2885 43.0408 19.5276 43.2662C16.6217 43.5031 13.9494 42.9937 11.9117 41.9013C8.03426 39.8199 5.46883 35.7987 5.03187 30.1332C4.53511 23.6995 6.69118 19.1148 10.4755 17.0013C12.2855 15.9894 15.1614 15.3478 18.0913 15.8445C20.3693 16.232 22.1516 17.06 23.7351 18.2616C23.9409 18.4168 24.2882 18.6503 24.3365 18.8216C24.4008 19.0481 24.3514 19.461 24.3709 19.7484C24.4307 20.6568 24.4767 21.4917 24.571 22.3909H25.6726C25.7531 19.6955 26.1326 17.6844 26.6754 15.6858C23.635 14.5635 20.2819 13.6298 16.0537 13.8391C15.3201 13.8759 14.5358 13.9391 13.8505 14.0357C6.75327 15.0442 2.02947 19.3851 0.924409 26.6731C0.479397 29.5985 0.710527 32.6262 1.45911 35.2146C2.8068 39.8786 6.18407 43.2041 10.5434 44.7392C12.8547 45.5534 15.5305 45.8707 18.5927 45.6131C21.3915 45.3786 23.6293 44.6898 25.6404 43.4766Z" fill="black"></path><path d="M49.7205 18.8219C50.1276 20.0925 50.1782 21.8392 49.8873 23.2697C49.3468 25.9444 47.8128 27.8279 45.7798 29.0836C43.848 30.2772 40.8605 30.9936 37.796 30.2036C37.6845 30.1266 37.6661 29.946 37.6281 29.8184C37.52 29.4458 37.4096 29.0319 37.3062 28.6443L37.2924 28.5926C38.4112 28.9491 39.4841 29.1905 40.6616 29.048C43.8859 28.657 45.9396 25.9777 45.9304 22.2532C45.9235 19.3462 44.5184 17.5536 42.5083 16.721C40.4546 15.8701 37.2878 15.9529 35.0615 16.7555C34.8028 18.6966 34.8304 20.9987 34.8304 23.2352V39.8352C34.8304 40.9448 34.7764 42.1649 35.1374 42.8111C35.6986 43.8138 37.4004 43.4723 38.6849 43.6161V45.1224C35.2582 44.8947 30.547 44.8924 27.1215 45.0879V43.6161C27.977 43.5609 29.8387 43.7184 30.4838 43.056C30.9759 42.5535 30.9759 41.2852 30.9759 40.0813V19.5578C30.9759 18.4677 31.0058 16.9728 30.6459 16.5106C30.1112 15.8229 28.3507 15.9207 27.2422 15.8092C27.1675 15.4343 27.2307 14.9122 27.21 14.4787C30.2687 14.6891 33.201 14.6351 36.2609 14.5144C42.0277 14.2878 48.2314 14.1694 49.7205 18.8219Z" fill="black"></path></svg> 