<?xml version="1.0" encoding="UTF-8"?> <svg xmlns="http://www.w3.org/2000/svg" width="208" height="39" viewBox="0 0 208 39" fill="none"><path d="M9.5774 28.6075C4.98889 28.6075 2.09089 26.848 0.952393 25.8475L3.16039 22.57C3.81589 23.053 5.95489 24.8125 9.5774 24.8125C12.8204 24.8125 14.7524 23.053 14.7524 20.983C14.7524 18.1195 11.5784 17.119 8.1974 15.532C4.60939 13.8415 1.71139 11.944 1.71139 7.49352C1.71139 2.87052 5.8169 0.14502 10.6814 0.14502C15.2009 0.14502 17.6849 1.62851 18.7889 2.42201L16.6499 5.73401C15.6494 5.07851 13.6139 3.97451 10.8539 3.97451C8.2319 3.97451 6.4379 5.25101 6.4379 7.45901C6.4379 9.83951 8.7494 10.8055 11.7164 12.082C15.5459 13.7725 19.5824 15.6355 19.5824 20.845C19.6169 25.468 15.6839 28.6075 9.5774 28.6075Z" fill="#1F4364"></path><path d="M30.6225 28.6064C24.1365 28.6064 20.3415 23.8109 20.3415 17.6354C20.3415 10.5629 24.93 6.66436 30.795 6.66436C34.245 6.66436 36.246 7.83735 37.2465 8.52735L35.556 11.7704C34.521 11.0804 33.1755 10.2869 30.8985 10.2869C27.069 10.2869 25.2405 13.3229 25.2405 17.4974C25.2405 21.6374 27.069 24.9149 31.002 24.9149C33.5205 24.9149 35.1765 23.8454 35.832 23.4314L37.35 26.5709C36.453 27.3299 34.4175 28.6064 30.6225 28.6064Z" fill="#1F4364"></path><path d="M41.0063 5.45769C39.4538 5.45769 38.2463 4.21568 38.2463 2.76668C38.2463 1.28318 39.4538 0.0756836 41.0063 0.0756836C42.5933 0.0756836 43.8008 1.31768 43.8008 2.76668C43.8008 4.25018 42.5933 5.45769 41.0063 5.45769Z" fill="#1F4364"></path><path d="M43.3528 7.21719H38.8333V28.1242H43.3528V7.21719Z" fill="#1F4364"></path><path d="M55.4971 25.0198C58.4296 25.0198 60.2236 23.9503 61.1551 23.3638L62.7766 26.5034C61.5691 27.2279 59.2921 28.5734 55.1866 28.5734C48.2866 28.5734 44.6296 23.9158 44.6296 17.4643C44.6296 11.0818 48.8731 6.63135 54.6001 6.63135C60.7756 6.63135 63.9841 11.0818 63.3286 18.2923H49.4941C49.7701 22.1563 51.4951 25.0198 55.4971 25.0198ZM58.8781 15.0493C58.7746 12.4273 57.6706 10.1848 54.5656 10.1848C51.7366 10.1848 50.1496 12.0823 49.6666 15.0493H58.8781Z" fill="#1F4364"></path><path d="M77.7152 28.0889V14.2889C77.7152 11.9429 76.8872 10.6319 74.4722 10.6319C71.8157 10.6319 69.8147 13.2194 69.3662 13.7714V28.0889H64.7087V7.18186H69.2972V9.97636C70.3322 8.73436 72.4712 6.66436 76.0592 6.66436C80.5787 6.66436 82.3382 9.59685 82.3382 13.3229V28.0889H77.7152Z" fill="#1F4364"></path><path d="M93.8616 28.6064C87.3756 28.6064 83.5806 23.8109 83.5806 17.6354C83.5806 10.5629 88.1691 6.66436 94.0341 6.66436C97.4841 6.66436 99.4851 7.83735 100.486 8.52735L98.7951 11.7704C97.7601 11.0804 96.4146 10.2869 94.1376 10.2869C90.3081 10.2869 88.4796 13.3229 88.4796 17.4974C88.4796 21.6374 90.3081 24.9149 94.2411 24.9149C96.7596 24.9149 98.4156 23.8454 99.0711 23.4314L100.589 26.5709C99.6921 27.3299 97.6566 28.6064 93.8616 28.6064Z" fill="#1F4364"></path><path d="M110.214 25.0198C113.147 25.0198 114.906 23.9503 115.872 23.3638L117.494 26.5034C116.286 27.2279 114.009 28.5734 109.904 28.5734C103.004 28.5734 99.3469 23.9158 99.3469 17.4643C99.3469 11.0818 103.59 6.63135 109.317 6.63135C115.493 6.63135 118.701 11.0818 118.046 18.2923H104.211C104.487 22.1563 106.212 25.0198 110.214 25.0198ZM113.595 15.0493C113.492 12.4273 112.388 10.1848 109.283 10.1848C106.454 10.1848 104.867 12.0823 104.384 15.0493H113.595Z" fill="#1F4364"></path><path d="M139.402 28.0894L128.051 10.6324C126.912 8.73486 125.705 6.66486 125.705 6.66486C125.705 6.73386 125.878 8.45886 125.878 10.0804V28.0894H121.427V0.109863H126.464L137.159 16.5664C138.401 18.7399 139.678 21.0169 139.678 21.0169C139.678 20.8444 139.505 19.0504 139.505 16.9114V0.109863H143.99V28.0894H139.402Z" fill="#1F4364"></path><path d="M156.169 24.9857C159.101 24.9857 160.895 23.9162 161.827 23.3297L163.448 26.4692C162.241 27.1937 159.964 28.5392 155.858 28.5392C148.958 28.5392 145.301 23.8817 145.301 17.4302C145.301 11.0477 149.545 6.59717 155.272 6.59717C161.447 6.59717 164.656 11.0477 164 18.2582H150.166C150.442 22.0877 152.167 24.9857 156.169 24.9857ZM159.55 15.0152C159.446 12.3932 158.342 10.1507 155.237 10.1507C152.408 10.1507 150.821 12.0482 150.338 15.0152H159.55Z" fill="#1F4364"></path><path d="M187.425 28.0548H183.251L178.524 13.0818H178.455L173.694 28.0548H169.52L163.413 7.14775H168.381L172.176 21.5688H172.245L176.454 7.14775H180.801L185.045 21.6378H185.114L188.943 7.14775H193.566L187.425 28.0548Z" fill="#1F4364"></path><path d="M199.983 28.6079C196.533 28.6079 194.187 27.4693 192.876 26.5723L194.567 23.2948C195.36 23.8468 197.361 25.0198 199.742 25.0198C202.157 25.0198 203.571 24.1573 203.571 22.6048C203.571 20.9488 201.605 20.3968 198.569 19.0168C195.464 17.6368 193.394 16.0843 193.394 12.7723C193.394 9.14984 196.223 6.63135 200.708 6.63135C204.296 6.63135 206.435 7.94234 207.263 8.45984L205.434 11.6684C204.641 11.1508 203.019 10.2538 200.846 10.2538C198.707 10.2538 197.672 11.1164 197.672 12.5309C197.672 14.2214 199.5 14.7733 201.846 15.7393C205.262 17.1193 207.953 18.6373 207.953 22.1563C207.953 26.2618 204.917 28.6079 199.983 28.6079Z" fill="#1F4364"></path><path d="M2.43677 37.8919L3.23027 32.3374H3.33377L5.61077 36.8914L7.85327 32.3374H7.95677L8.75027 37.8919H8.19827L7.64627 33.9244L5.67977 37.8919H5.54177L3.54077 33.8899L2.98877 37.8919H2.43677Z" fill="#999999"></path><path d="M12.1649 32.3374L14.7869 37.8919H14.1659L13.2689 36.0634H10.8539L9.99136 37.8919H9.37036L12.0269 32.3374H12.1649ZM12.0959 33.5449L11.1299 35.5459H13.0274L12.0959 33.5449Z" fill="#999999"></path><path d="M21.0319 33.2695L20.5834 33.6835C20.2729 33.373 19.9279 33.166 19.5484 32.9935C19.1689 32.821 18.8239 32.752 18.4789 32.752C18.0304 32.752 17.6164 32.8555 17.2369 33.0625C16.8229 33.2695 16.5469 33.58 16.3054 33.925C16.0984 34.3045 15.9949 34.684 15.9949 35.098C15.9949 35.512 16.0984 35.926 16.3399 36.271C16.5814 36.6505 16.8919 36.9265 17.2714 37.168C17.6854 37.375 18.0994 37.4785 18.5824 37.4785C19.1689 37.4785 19.6519 37.306 20.0314 36.9955C20.4454 36.685 20.6524 36.271 20.7559 35.7535H18.9619V35.2015H21.3769C21.3769 36.064 21.1009 36.754 20.6179 37.237C20.1004 37.7545 19.4449 37.996 18.5824 37.996C17.5474 37.996 16.7194 37.651 16.1329 36.961C15.6844 36.409 15.4429 35.788 15.4429 35.098C15.4429 34.5805 15.5809 34.0975 15.8569 33.6145C16.1329 33.166 16.4779 32.821 16.9609 32.545C17.4094 32.3035 17.9614 32.1655 18.5479 32.1655C19.0309 32.1655 19.4794 32.2345 19.8934 32.407C20.2384 32.6485 20.6179 32.89 21.0319 33.2695Z" fill="#999999"></path><path d="M24.7232 32.3374L27.3452 37.8919H26.7242L25.8272 36.0634H23.4122L22.5497 37.8919H21.9287L24.5852 32.3374H24.7232ZM24.6542 33.5449L23.6882 35.5459H25.5857L24.6542 33.5449Z" fill="#999999"></path><path d="M27.9661 32.8901V32.3726H30.9331L28.5871 37.3751H30.7951V37.9271H27.7246L30.0706 32.9246L27.9661 32.8901Z" fill="#999999"></path><path d="M31.8647 32.3374H32.4167V37.8919H31.8647V32.3374Z" fill="#999999"></path><path d="M33.6938 37.8919V32.3374H33.8318L37.5578 36.5809V32.3374H38.1098V37.8919H37.9719L34.2803 33.6829V37.8919H33.6938Z" fill="#999999"></path><path d="M39.4551 32.3374H42.6636V32.8894H40.0071V34.6144H42.6291V35.1664H40.0071V37.3399H42.6291V37.8919H39.4551V32.3374Z" fill="#999999"></path><path d="M48.4593 32.1987C49.3218 32.1987 50.0118 32.4747 50.5983 33.0267C51.1848 33.5787 51.4608 34.2687 51.4608 35.0967C51.4608 35.8902 51.1848 36.5802 50.5983 37.1667C50.0118 37.7187 49.3218 38.0292 48.5283 38.0292C47.7003 38.0292 47.0103 37.7532 46.4238 37.2012C45.8373 36.6492 45.5613 35.9592 45.5613 35.1657C45.5613 34.6482 45.6993 34.1307 45.9408 33.6822C46.2168 33.2337 46.5618 32.8887 47.0103 32.6127C47.4588 32.3367 47.9418 32.1987 48.4593 32.1987ZM48.4938 32.7507C48.0798 32.7507 47.7003 32.8542 47.3208 33.0612C46.9413 33.2682 46.6653 33.5787 46.4583 33.9237C46.2513 34.2687 46.1478 34.6827 46.1478 35.1312C46.1478 35.7867 46.3893 36.3387 46.8378 36.7872C47.2863 37.2357 47.8383 37.4772 48.4938 37.4772C48.9423 37.4772 49.3218 37.3737 49.7013 37.1667C50.0808 36.9597 50.3568 36.6837 50.5638 36.3042C50.7708 35.9592 50.8743 35.5452 50.8743 35.0967C50.8743 34.6482 50.7708 34.2687 50.5638 33.8892C50.3568 33.5442 50.0808 33.2337 49.7013 33.0267C49.2873 32.8542 48.9078 32.7507 48.4938 32.7507Z" fill="#999999"></path><path d="M52.5652 32.3374H55.3597V32.8894H53.1172V34.6144H55.3597V35.1664H53.1172V37.8919H52.5652V32.3374Z" fill="#999999"></path><path d="M57.9468 32.8894V32.3374H61.0173V32.8894H59.7753V37.8919H59.1888V32.8894H57.9468Z" fill="#999999"></path><path d="M61.8108 32.3374H62.3628V34.6489H65.2263V32.3374H65.7783V37.8919H65.2263V35.2009H62.3628V37.8919H61.8108V32.3374Z" fill="#999999"></path><path d="M67.1243 32.3374H70.3328V32.8894H67.6763V34.6144H70.2983V35.1664H67.6763V37.3399H70.2983V37.8919H67.1243V32.3374Z" fill="#999999"></path><path d="M72.8855 36.8575L73.3685 36.5815C73.7135 37.2025 74.093 37.4785 74.5415 37.4785C74.714 37.4785 74.921 37.444 75.059 37.3405C75.2315 37.237 75.335 37.1335 75.4385 36.9955C75.5075 36.8575 75.5765 36.685 75.5765 36.547C75.5765 36.3745 75.5075 36.1675 75.3695 35.995C75.197 35.7535 74.8865 35.443 74.4035 35.098C73.9205 34.753 73.6445 34.5115 73.541 34.339C73.334 34.063 73.2305 33.787 73.2305 33.4765C73.2305 33.235 73.2995 33.028 73.403 32.821C73.5065 32.614 73.679 32.476 73.886 32.338C74.093 32.2345 74.3345 32.1655 74.576 32.1655C74.852 32.1655 75.0935 32.2345 75.3005 32.3725C75.542 32.5105 75.7835 32.752 76.025 33.097L75.5765 33.442C75.3695 33.166 75.197 32.9935 75.0245 32.89C74.8865 32.7865 74.714 32.752 74.5415 32.752C74.3 32.752 74.1275 32.821 73.9895 32.959C73.8515 33.097 73.7825 33.2695 73.7825 33.4765C73.7825 33.58 73.817 33.718 73.8515 33.8215C73.886 33.925 73.9895 34.063 74.1275 34.201C74.1965 34.27 74.438 34.4425 74.852 34.753C75.335 35.098 75.68 35.4085 75.8525 35.6845C76.025 35.9605 76.1285 36.2365 76.1285 36.5125C76.1285 36.9265 75.9905 37.2715 75.68 37.5475C75.3695 37.858 74.99 37.996 74.5415 37.996C74.1965 37.996 73.886 37.8925 73.61 37.72C73.3685 37.582 73.127 37.2715 72.8855 36.8575Z" fill="#999999"></path><path d="M80.0271 32.1987C80.8896 32.1987 81.5796 32.4747 82.1661 33.0267C82.7526 33.5787 83.0286 34.2687 83.0286 35.0967C83.0286 35.8902 82.7526 36.5802 82.1661 37.1667C81.5796 37.7187 80.8896 38.0292 80.0961 38.0292C79.2681 38.0292 78.5782 37.7532 77.9917 37.2012C77.4052 36.6492 77.1292 35.9592 77.1292 35.1657C77.1292 34.6482 77.2671 34.1307 77.5086 33.6822C77.7846 33.2337 78.1296 32.8887 78.5781 32.6127C78.9921 32.3367 79.5096 32.1987 80.0271 32.1987ZM80.0271 32.7507C79.6131 32.7507 79.2336 32.8542 78.8541 33.0612C78.4746 33.2682 78.1987 33.5787 77.9917 33.9237C77.7847 34.2687 77.6811 34.6827 77.6811 35.1312C77.6811 35.7867 77.9226 36.3387 78.3711 36.7872C78.8196 37.2357 79.3716 37.4772 80.0271 37.4772C80.4756 37.4772 80.8551 37.3737 81.2346 37.1667C81.6141 36.9597 81.8901 36.6837 82.0971 36.3042C82.3041 35.9592 82.4077 35.5452 82.4077 35.0967C82.4077 34.6482 82.3041 34.2687 82.0971 33.8892C81.8901 33.5442 81.6141 33.2337 81.2346 33.0267C80.8551 32.8542 80.4756 32.7507 80.0271 32.7507Z" fill="#999999"></path><path d="M89.3418 33.3719L88.8932 33.7169C88.6517 33.4064 88.3412 33.1649 88.0307 32.9924C87.6857 32.8199 87.3062 32.7509 86.8922 32.7509C86.4437 32.7509 86.0297 32.8544 85.6502 33.0614C85.2707 33.2684 84.9602 33.5444 84.7532 33.9239C84.5462 34.2689 84.4427 34.6829 84.4427 35.1314C84.4427 35.8214 84.6842 36.3734 85.1327 36.8219C85.6157 37.2704 86.2022 37.5119 86.8922 37.5119C87.6857 37.5119 88.3412 37.2014 88.8587 36.6149L89.3072 36.9599C89.0312 37.3049 88.6862 37.5809 88.2722 37.7879C87.8582 37.9949 87.3752 38.0639 86.8577 38.0639C85.8917 38.0639 85.0982 37.7534 84.5462 37.0979C84.0632 36.5459 83.8217 35.8904 83.8217 35.1314C83.8217 34.3034 84.0977 33.6479 84.6842 33.0959C85.2708 32.5439 85.9952 32.2679 86.8577 32.2679C87.3752 32.2679 87.8582 32.3714 88.2722 32.5784C88.7207 32.7164 89.0658 32.9924 89.3418 33.3719Z" fill="#999999"></path><path d="M90.3772 32.3374H90.9292V37.8919H90.3772V32.3374Z" fill="#999999"></path><path d="M92.24 32.3374H95.4485V32.8894H92.792V34.6144H95.414V35.1664H92.792V37.3399H95.414V37.8919H92.24V32.3374Z" fill="#999999"></path><path d="M95.8284 32.8894V32.3374H98.8989V32.8894H97.6569V37.8919H97.0704V32.8894H95.8284Z" fill="#999999"></path><path d="M99.2778 32.3374H99.9333L101.348 34.6144L102.762 32.3374H103.418L101.658 35.2354V37.8919H101.106V35.2354L99.2778 32.3374Z" fill="#999999"></path><path d="M106.489 32.3374H109.283V32.8894H107.041V34.6144H109.283V35.1664H107.041V37.8919H106.489V32.3374Z" fill="#999999"></path><path d="M112.939 32.1987C113.802 32.1987 114.492 32.4747 115.078 33.0267C115.665 33.5787 115.941 34.2687 115.941 35.0967C115.941 35.8902 115.665 36.5802 115.078 37.1667C114.492 37.7187 113.802 38.0292 113.008 38.0292C112.18 38.0292 111.49 37.7532 110.904 37.2012C110.317 36.6492 110.041 35.9592 110.041 35.1657C110.041 34.6482 110.179 34.1307 110.421 33.6822C110.697 33.2337 111.042 32.8887 111.49 32.6127C111.904 32.3367 112.387 32.1987 112.939 32.1987ZM112.939 32.7507C112.525 32.7507 112.146 32.8542 111.766 33.0612C111.387 33.2682 111.111 33.5787 110.904 33.9237C110.697 34.2687 110.593 34.6827 110.593 35.1312C110.593 35.7867 110.835 36.3387 111.283 36.7872C111.732 37.2357 112.284 37.4772 112.939 37.4772C113.388 37.4772 113.767 37.3737 114.147 37.1667C114.526 36.9597 114.802 36.6837 115.009 36.3042C115.216 35.9592 115.32 35.5452 115.32 35.0967C115.32 34.6482 115.216 34.2687 115.009 33.8892C114.802 33.5097 114.526 33.2337 114.147 33.0267C113.767 32.8542 113.388 32.7507 112.939 32.7507Z" fill="#999999"></path><path d="M117.08 32.3374H118.184C118.805 32.3374 119.219 32.3719 119.461 32.4064C119.806 32.4754 120.047 32.6479 120.289 32.8894C120.496 33.1309 120.599 33.4414 120.599 33.8209C120.599 34.1314 120.53 34.3729 120.392 34.6144C120.254 34.8559 120.047 35.0284 119.771 35.1319C119.495 35.2354 119.15 35.3044 118.667 35.3044L120.668 37.8919H119.978L117.977 35.3044H117.667V37.8919H117.115L117.08 32.3374ZM117.632 32.8894V34.7869H118.598C118.978 34.7869 119.254 34.7524 119.426 34.6834C119.599 34.6144 119.737 34.5109 119.84 34.3384C119.944 34.2004 119.978 34.0279 119.978 33.8209C119.978 33.6484 119.944 33.4759 119.84 33.3034C119.737 33.1654 119.599 33.0274 119.426 32.9929C119.254 32.9239 118.978 32.8894 118.598 32.8894H117.632Z" fill="#999999"></path><path d="M123.358 36.8575L123.841 36.5815C124.186 37.2025 124.566 37.4785 125.014 37.4785C125.187 37.4785 125.394 37.444 125.532 37.3405C125.704 37.237 125.808 37.1335 125.911 36.9955C126.015 36.8575 126.049 36.685 126.049 36.547C126.049 36.3745 125.98 36.1675 125.877 35.995C125.704 35.7535 125.394 35.443 124.911 35.098C124.428 34.753 124.152 34.5115 124.048 34.339C123.841 34.063 123.738 33.787 123.738 33.4765C123.738 33.235 123.807 33.028 123.91 32.821C124.014 32.614 124.186 32.476 124.393 32.338C124.6 32.2345 124.842 32.1655 125.083 32.1655C125.359 32.1655 125.601 32.2345 125.808 32.3725C126.049 32.5105 126.291 32.752 126.532 33.097L126.084 33.442C125.877 33.166 125.704 32.9935 125.532 32.89C125.394 32.7865 125.221 32.752 125.049 32.752C124.807 32.752 124.635 32.821 124.497 32.959C124.359 33.097 124.29 33.2695 124.29 33.4765C124.29 33.58 124.324 33.718 124.359 33.8215C124.393 33.925 124.497 34.063 124.635 34.201C124.704 34.27 124.945 34.4425 125.359 34.753C125.842 35.098 126.187 35.4085 126.36 35.6845C126.532 35.9605 126.636 36.2365 126.636 36.5125C126.636 36.9265 126.498 37.2715 126.187 37.5475C125.877 37.858 125.497 37.996 125.049 37.996C124.704 37.996 124.393 37.8925 124.117 37.72C123.841 37.582 123.565 37.2715 123.358 36.8575Z" fill="#999999"></path><path d="M133.019 33.3719L132.571 33.7169C132.329 33.4064 132.019 33.1649 131.708 32.9924C131.363 32.8199 130.984 32.7509 130.57 32.7509C130.121 32.7509 129.707 32.8544 129.328 33.0614C128.948 33.2684 128.638 33.5444 128.431 33.9239C128.224 34.2689 128.12 34.6829 128.12 35.1314C128.12 35.8214 128.362 36.3734 128.81 36.8219C129.293 37.2704 129.88 37.5119 130.57 37.5119C131.363 37.5119 132.019 37.2014 132.536 36.6149L132.985 36.9599C132.709 37.3049 132.364 37.5809 131.95 37.7879C131.536 37.9949 131.053 38.0639 130.57 38.0639C129.604 38.0639 128.81 37.7534 128.258 37.0979C127.775 36.5459 127.534 35.8904 127.534 35.1314C127.534 34.3034 127.81 33.6479 128.396 33.0959C128.983 32.5439 129.673 32.2679 130.57 32.2679C131.087 32.2679 131.57 32.3714 131.984 32.5784C132.398 32.7164 132.743 32.9924 133.019 33.3719Z" fill="#999999"></path><path d="M134.054 32.3374H134.606V37.8919H134.054V32.3374Z" fill="#999999"></path><path d="M135.883 32.3374H139.091V32.8894H136.435V34.6144H139.057V35.1664H136.435V37.3399H139.057V37.8919H135.883V32.3374Z" fill="#999999"></path><path d="M140.092 37.8919V32.3374H140.23L143.956 36.5809V32.3374H144.508V37.8919H144.37L140.679 33.6829V37.8919H140.092Z" fill="#999999"></path><path d="M151.063 33.3719L150.614 33.7169C150.373 33.4064 150.062 33.1649 149.752 32.9924C149.407 32.8199 149.027 32.7509 148.613 32.7509C148.165 32.7509 147.751 32.8544 147.371 33.0614C146.992 33.2684 146.681 33.5444 146.474 33.9239C146.267 34.2689 146.164 34.6829 146.164 35.1314C146.164 35.8214 146.405 36.3734 146.854 36.8219C147.337 37.2704 147.923 37.5119 148.613 37.5119C149.407 37.5119 150.062 37.2014 150.58 36.6149L151.028 36.9599C150.752 37.3049 150.407 37.5809 149.993 37.7879C149.579 37.9949 149.096 38.0639 148.579 38.0639C147.613 38.0639 146.819 37.7534 146.267 37.0979C145.784 36.5459 145.543 35.8904 145.543 35.1314C145.543 34.3034 145.819 33.6479 146.405 33.0959C146.992 32.5439 147.716 32.2679 148.579 32.2679C149.096 32.2679 149.579 32.3714 149.993 32.5784C150.442 32.7164 150.787 32.9924 151.063 33.3719Z" fill="#999999"></path><path d="M152.166 32.3374H155.375V32.8894H152.718V34.6144H155.34V35.1664H152.718V37.3399H155.34V37.8919H152.166V32.3374Z" fill="#999999"></path><path d="M162.758 35.8561L163.138 36.2701C162.896 36.4771 162.655 36.6841 162.448 36.8221C162.586 36.9601 162.793 37.1671 163.034 37.4086C163.241 37.5811 163.379 37.7881 163.517 37.9261H162.758L161.999 37.1671C161.551 37.5466 161.137 37.7881 160.861 37.8916C160.585 37.9951 160.274 38.0641 159.929 38.0641C159.481 38.0641 159.136 37.9261 158.894 37.6846C158.618 37.4431 158.515 37.1326 158.515 36.7531C158.515 36.4771 158.618 36.2011 158.791 35.9251C158.963 35.6491 159.343 35.3041 159.86 34.8556C159.55 34.4761 159.343 34.2346 159.274 34.0621C159.17 33.8896 159.136 33.7171 159.136 33.5791C159.136 33.3031 159.239 33.0616 159.446 32.8891C159.688 32.6821 159.998 32.5786 160.378 32.5786C160.619 32.5786 160.826 32.6131 161.033 32.7166C161.24 32.8201 161.378 32.9236 161.482 33.0961C161.585 33.2686 161.62 33.4066 161.62 33.6136C161.62 33.7861 161.551 33.9931 161.413 34.2001C161.275 34.4071 161.033 34.6831 160.619 34.9936L162.034 36.4081C162.344 36.1666 162.586 35.9941 162.758 35.8561ZM160.205 35.2696C159.722 35.6146 159.412 35.8906 159.274 36.1321C159.136 36.3391 159.067 36.5461 159.067 36.7186C159.067 36.9256 159.17 37.1326 159.343 37.2706C159.515 37.4431 159.757 37.5121 159.998 37.5121C160.205 37.5121 160.378 37.4776 160.585 37.4086C160.895 37.2706 161.24 37.0636 161.62 36.7531L160.723 35.8561C160.585 35.6836 160.412 35.4766 160.205 35.2696ZM160.274 34.5451C160.55 34.3381 160.757 34.1311 160.895 33.9241C160.999 33.7861 161.033 33.6481 161.033 33.5446C161.033 33.4066 160.964 33.3031 160.861 33.1996C160.723 33.0961 160.55 33.0616 160.343 33.0616C160.136 33.0616 159.998 33.0961 159.86 33.1996C159.722 33.3031 159.688 33.4066 159.688 33.5446C159.688 33.6481 159.722 33.7516 159.757 33.8206C159.895 34.0621 160.067 34.3036 160.274 34.5451Z" fill="#999999"></path><path d="M166.001 32.8894V32.3374H169.072V32.8894H167.83V37.8919H167.243V32.8894H166.001Z" fill="#999999"></path><path d="M169.866 32.3374H170.418V34.6489H173.281V32.3374H173.833V37.8919H173.281V35.2009H170.418V37.8919H169.866V32.3374Z" fill="#999999"></path><path d="M175.213 32.3374H178.421V32.8894H175.765V34.6144H178.387V35.1664H175.765V37.3399H178.387V37.8919H175.213V32.3374Z" fill="#999999"></path><path d="M181.526 32.3374H182.63C183.251 32.3374 183.7 32.3719 183.907 32.4064C184.217 32.4754 184.493 32.6479 184.7 32.8894C184.907 33.1309 185.011 33.4414 185.011 33.7864C185.011 34.1659 184.907 34.4764 184.7 34.6834C184.493 34.9249 184.217 35.0974 183.872 35.1664C183.631 35.2354 183.148 35.2699 182.458 35.2699H182.078V37.8574H181.526V32.3374ZM182.078 32.8894V34.7524H183.01C183.389 34.7524 183.665 34.7179 183.838 34.6489C184.01 34.5799 184.148 34.4764 184.252 34.3039C184.355 34.1659 184.39 33.9934 184.39 33.7864C184.39 33.6139 184.355 33.4414 184.252 33.2689C184.148 33.1309 184.01 32.9929 183.838 32.9239C183.665 32.8549 183.389 32.8204 183.01 32.8204C183.079 32.8894 182.078 32.8894 182.078 32.8894Z" fill="#999999"></path><path d="M186.149 32.3374H186.701V35.6839C186.701 36.0634 186.701 36.3394 186.736 36.4084C186.77 36.6154 186.839 36.8224 186.943 36.9604C187.046 37.0984 187.184 37.2364 187.426 37.3399C187.633 37.4434 187.84 37.4779 188.047 37.4779C188.219 37.4779 188.426 37.4434 188.564 37.3744C188.737 37.3054 188.875 37.2019 188.978 37.0639C189.082 36.9259 189.185 36.7534 189.22 36.5809C189.254 36.4429 189.289 36.1669 189.289 35.7184V32.3719H189.841V35.7184C189.841 36.2014 189.806 36.6154 189.703 36.9259C189.599 37.2364 189.393 37.5124 189.117 37.7194C188.841 37.9609 188.461 38.0644 188.047 38.0644C187.598 38.0644 187.219 37.9609 186.874 37.7539C186.563 37.5469 186.322 37.2709 186.218 36.8914C186.149 36.6844 186.115 36.2704 186.115 35.7184L186.149 32.3374Z" fill="#999999"></path><path d="M191.255 32.3374H192.359C192.808 32.3374 193.153 32.4064 193.394 32.5099C193.636 32.6134 193.808 32.7859 193.946 32.9929C194.084 33.1999 194.153 33.4414 194.153 33.7174C194.153 33.9589 194.084 34.2004 193.981 34.4074C193.877 34.6144 193.67 34.7869 193.463 34.8904C193.739 34.9939 193.981 35.0974 194.119 35.2354C194.291 35.3734 194.395 35.5114 194.498 35.7184C194.602 35.8909 194.636 36.0979 194.636 36.3394C194.636 36.7879 194.464 37.1674 194.153 37.4779C193.808 37.7884 193.394 37.9264 192.842 37.9264H191.29L191.255 32.3374ZM191.807 32.8894V34.6489H192.118C192.497 34.6489 192.808 34.6144 192.98 34.5454C193.153 34.4764 193.291 34.3729 193.429 34.2004C193.532 34.0279 193.601 33.8899 193.601 33.6829C193.601 33.4414 193.498 33.2344 193.325 33.0964C193.153 32.9584 192.877 32.8894 192.463 32.8894H191.807ZM191.807 35.2354V37.3744H192.497C192.911 37.3744 193.222 37.3399 193.394 37.2709C193.601 37.2019 193.739 37.0639 193.843 36.8914C193.946 36.7189 194.015 36.5464 194.015 36.3394C194.015 36.0979 193.946 35.8909 193.774 35.6839C193.601 35.5114 193.394 35.3734 193.118 35.3044C192.946 35.2699 192.601 35.2354 192.118 35.2354H191.807Z" fill="#999999"></path><path d="M196.293 32.3374V37.3399H198.432V37.8919H195.706V32.3374H196.293Z" fill="#999999"></path><path d="M199.259 32.3374H199.811V37.8919H199.259V32.3374Z" fill="#999999"></path><path d="M206.297 33.3719L205.848 33.7169C205.607 33.4064 205.296 33.1649 204.986 32.9924C204.641 32.8199 204.261 32.7509 203.847 32.7509C203.399 32.7509 202.985 32.8544 202.605 33.0614C202.226 33.2684 201.915 33.5444 201.708 33.9239C201.501 34.2689 201.398 34.6829 201.398 35.1314C201.398 35.8214 201.639 36.3734 202.088 36.8219C202.571 37.2704 203.157 37.5119 203.847 37.5119C204.641 37.5119 205.296 37.2014 205.814 36.6149L206.262 36.9599C205.986 37.3049 205.641 37.5809 205.227 37.7879C204.813 37.9949 204.33 38.0639 203.813 38.0639C202.847 38.0639 202.053 37.7534 201.501 37.0979C201.018 36.5459 200.777 35.8904 200.777 35.1314C200.777 34.3034 201.053 33.6479 201.639 33.0959C202.226 32.5439 202.95 32.2679 203.813 32.2679C204.33 32.2679 204.813 32.3714 205.227 32.5784C205.676 32.7164 206.021 32.9924 206.297 33.3719Z" fill="#999999"></path></svg> 