<?xml version="1.0" encoding="UTF-8"?> <svg xmlns="http://www.w3.org/2000/svg" width="251" height="32" viewBox="0 0 251 32" fill="none"><path d="M13.8899 15.7964L39.8377 1.73828L18.0774 17.4415L16.1332 25.7418L13.8899 15.7964Z" fill="#FCEFD3"></path><path d="M42.0812 0.392578L6.18799 12.2074L13.8899 15.7964C13.8899 15.7964 25.4806 10.0389 34.6782 5.25311C35.6503 4.72967 37.2206 3.90712 37.2206 3.90712L17.9281 17.5166L27.7239 24.3214L42.0812 0.392578Z" fill="#F3C462"></path><path d="M16.2828 26.0413L17.9281 17.5166L22.4146 20.5826L16.2828 26.0413Z" fill="#FCEFD3"></path><path d="M62.8694 7.34627C62.7946 6.89761 62.4955 6.74805 62.0468 6.74805C61.4486 6.74805 60.4017 6.89761 58.6071 6.89761H55.616C53.8213 6.89761 52.7744 6.74805 52.1762 6.74805C51.578 6.74805 51.3537 6.89761 51.3537 7.34627C51.2789 7.94449 51.3537 8.46793 51.2789 8.9166C51.2789 9.29048 51.2041 9.66437 51.2041 10.113C51.2041 10.5617 51.4284 10.7113 51.7275 10.7113C52.5501 10.7113 52.251 9.14093 53.4474 8.39316C54.0456 8.01927 54.5691 8.01927 55.7655 8.01927C55.9899 8.01927 56.0646 8.16882 56.0646 8.31838C56.0646 8.39316 56.0646 17.8899 56.0646 17.8899C56.0646 18.862 55.9899 19.535 55.9151 19.8341C55.5412 20.5819 54.7934 20.4323 54.7934 20.9558C54.7934 21.2549 55.0178 21.3297 55.3169 21.3297H58.7566C59.0557 21.3297 59.3548 21.2549 59.3548 20.9558C59.3548 20.5071 58.6818 20.5819 58.308 19.8341C58.1584 19.4602 58.0836 18.7872 58.0836 17.8151C58.0836 17.8151 58.0836 8.39316 58.0836 8.2436C58.0836 8.09405 58.1584 7.94449 58.3827 7.94449C59.3549 7.94449 59.8783 7.94449 60.4765 8.2436C61.8973 8.99138 61.5982 10.6365 62.4207 10.6365C62.8694 10.6365 63.0189 10.3374 63.0189 10.0383C63.0189 9.66437 63.0189 9.21571 62.9442 8.84182C62.9442 8.39316 62.9442 7.86971 62.8694 7.34627ZM67.5056 7.64538C67.5056 7.19672 66.5335 6.22461 66.0848 6.22461C65.6362 6.22461 64.664 7.19672 64.664 7.64538C64.664 8.09405 65.6362 9.06615 66.0848 9.06615C66.5335 9.06615 67.5056 8.09405 67.5056 7.64538ZM67.1317 17.8151V11.0851C67.1317 10.7113 66.9821 10.5617 66.683 10.5617C66.5335 10.5617 66.4587 10.6365 66.3092 10.6365C65.7109 10.9356 65.1127 11.0851 64.3649 11.2347C63.9163 11.3095 63.7667 11.5338 63.7667 11.6834C63.7667 11.9077 63.991 11.9825 64.2154 12.0573C64.5145 12.132 64.7388 12.2816 64.8884 12.5059C65.1127 12.805 65.1127 13.3285 65.1127 14.151V17.7403C65.1127 18.7124 65.0379 19.3854 64.8884 19.8341C64.5893 20.5071 63.8415 20.5071 63.8415 20.9558C63.8415 21.2549 64.0658 21.3297 64.3649 21.3297H67.7299C68.029 21.3297 68.3281 21.2549 68.3281 20.9558C68.3281 20.5071 67.6551 20.5819 67.2813 19.8341C67.1317 19.4602 67.1317 18.7872 67.1317 17.8151ZM80.0682 14.5997C80.0682 13.1789 79.8439 12.4311 79.3952 11.8329C78.8718 11.0851 77.8997 10.5617 76.778 10.5617C75.2825 10.5617 74.1608 11.3843 73.4878 12.2816C73.413 12.3564 73.413 12.3564 73.413 12.3564H73.3382V11.1599C73.3382 10.786 73.1887 10.5617 72.8896 10.5617C72.74 10.5617 72.6652 10.6365 72.5157 10.6365C71.9922 10.8608 71.394 11.0851 70.6462 11.2347C70.1976 11.3095 70.048 11.459 70.048 11.6834C70.048 12.132 70.8706 12.0573 71.2445 12.5059C71.394 12.805 71.4688 13.1041 71.4688 13.7771V17.7403C71.4688 18.7124 71.394 19.3854 71.2445 19.8341C70.9454 20.5071 70.1976 20.5071 70.1976 20.9558C70.1976 21.2549 70.4219 21.3297 70.721 21.3297H74.086C74.3851 21.3297 74.6095 21.2549 74.6095 20.9558C74.6095 20.5819 73.9365 20.5071 73.6373 19.9837C73.413 19.6098 73.3382 18.862 73.3382 17.8151C73.3382 14.6745 73.4878 13.6276 74.3103 12.8798C74.759 12.4311 75.432 12.2068 76.0302 12.2068C77.2267 12.2068 78.124 12.9546 78.124 14.7492V17.8899C78.124 18.862 78.0492 19.6098 77.8249 19.9837C77.5258 20.5819 76.8528 20.6567 76.8528 21.0305C76.8528 21.3297 77.1519 21.4044 77.451 21.4044H80.816C81.1151 21.4044 81.4142 21.3297 81.4142 21.0305C81.4142 20.6567 80.7412 20.5819 80.4421 20.0584C80.2178 19.6846 80.143 18.9368 80.143 17.8899V14.5997H80.0682ZM92.556 10.786H89.7145C89.3406 10.786 89.1163 10.9356 89.1163 11.1599C89.1163 11.6834 90.0884 11.5338 90.0884 12.5807C90.0884 13.1041 89.7893 13.8519 89.3406 15.0483L87.9198 18.7124C87.8451 18.7872 87.8451 18.862 87.8451 18.862C87.8451 18.862 87.7703 18.862 87.7703 18.7124L85.6765 13.5528C85.4522 12.9546 85.3774 12.5807 85.3774 12.2816C85.3774 11.459 86.3495 11.6086 86.3495 11.0851C86.3495 10.8608 86.1252 10.7113 85.8261 10.7113H82.5359C82.0872 10.7113 81.9376 10.8608 81.9376 11.0851C81.9376 11.459 82.3863 11.459 82.7602 11.7581C83.1341 12.0573 83.4332 12.7302 83.8071 13.7024L86.7982 21.2549C86.7982 21.3297 86.873 21.4044 86.873 21.4044C86.873 21.4044 86.873 21.554 86.7982 21.6288C86.4243 22.4513 85.8261 23.4982 84.854 23.4982C83.8819 23.4982 83.7323 22.6756 83.1341 22.6756C82.6854 22.6756 82.4611 23.1243 82.4611 23.6478C82.4611 24.6946 83.1341 25.2181 84.0314 25.2181C84.4801 25.2181 85.0035 25.0685 85.527 24.7694C86.873 23.9469 87.6955 22.3765 88.3685 20.8062C89.0415 19.1611 90.6866 15.1979 91.1353 14.0762C91.4344 13.3285 91.8083 12.6555 92.1822 12.132C92.7056 11.5338 93.3038 11.5338 93.3038 11.0851C93.1543 10.8608 92.9299 10.786 92.556 10.786ZM112.073 6.89761H108.858C108.409 6.89761 108.185 7.04716 108.185 7.27149C108.185 7.5706 108.558 7.64538 108.783 7.79494C109.381 8.01927 109.755 8.46793 109.83 10.1878C109.904 11.459 109.904 15.7961 109.904 17.9647C109.904 18.0394 109.904 18.0394 109.83 18.0394C109.755 18.0394 109.755 17.9647 109.68 17.8899L101.978 7.12194C101.828 6.89761 101.604 6.82283 101.305 6.82283H99.2112C98.9121 6.82283 98.613 6.89761 98.613 7.19672C98.613 7.5706 99.1364 7.5706 99.5851 7.79494C99.8094 7.94449 100.034 8.09405 100.183 8.2436C100.258 8.31838 100.333 8.39316 100.333 8.54271C100.333 8.99137 100.258 16.9178 100.258 17.8899C100.183 20.881 98.5382 20.1332 98.5382 20.881C98.5382 21.1053 98.6878 21.2549 99.1365 21.2549H102.726C103.1 21.2549 103.324 21.1053 103.324 20.881C103.324 20.6567 103.1 20.5071 102.801 20.3575C102.053 20.0584 101.529 19.535 101.455 17.8899C101.38 16.9178 101.38 11.6834 101.38 9.96348C101.38 9.8887 101.455 9.88871 101.455 9.88871C101.529 9.88871 101.529 9.96348 101.604 10.0383L109.531 21.1801C109.68 21.3297 109.755 21.4044 109.904 21.4044H110.727C110.951 21.4044 111.026 21.2549 111.026 21.1053C111.026 20.4323 111.026 11.459 111.101 10.113C111.25 8.2436 111.624 7.94449 112.148 7.72016C112.447 7.5706 112.746 7.49583 112.746 7.19672C112.746 7.04716 112.522 6.89761 112.073 6.89761ZM116.186 14.4501C116.41 12.9546 117.457 11.6086 119.102 11.6086C120.523 11.6086 121.345 12.7302 121.345 13.6276C121.345 14.5249 120.822 14.824 119.625 14.824C119.625 14.824 116.485 14.824 116.335 14.824C116.186 14.824 116.186 14.824 116.186 14.6745C116.186 14.5997 116.186 14.5997 116.186 14.4501ZM122.691 18.7124C122.243 18.7124 121.42 20.0584 119.401 20.0584C117.233 20.0584 116.036 18.189 116.036 16.0205V15.9457C116.036 15.7961 116.111 15.7213 116.26 15.7213C116.41 15.7213 121.719 15.7213 121.719 15.7213C122.691 15.7213 123.29 15.497 123.29 14.3006C123.29 12.8798 122.093 10.5617 119.177 10.5617C116.036 10.5617 113.942 13.4032 113.942 16.3196C113.942 19.0863 115.737 21.4792 118.878 21.4792C121.57 21.4792 123.065 19.6098 123.065 19.0863C123.14 18.862 122.916 18.7124 122.691 18.7124ZM142.059 11.1599C142.059 10.9356 141.909 10.786 141.46 10.786H138.619C138.245 10.786 138.021 10.8608 138.021 11.1599C138.021 11.7581 139.068 11.5338 139.068 12.6555C139.068 13.2537 138.843 14.0015 138.395 15.3475C137.946 16.6935 137.348 18.4133 137.123 19.0116C137.123 19.0863 137.049 19.1611 137.049 19.1611C137.049 19.1611 136.974 19.0863 136.974 19.0116L134.207 10.8608C134.132 10.786 134.132 10.7113 133.983 10.7113H132.861C132.712 10.7113 132.712 10.786 132.637 10.8608L129.571 18.9368C129.571 19.0116 129.496 19.0116 129.496 19.0116L129.421 18.9368L127.851 13.7771C127.701 13.1789 127.552 12.7302 127.552 12.4311C127.552 11.459 128.449 11.6086 128.449 11.1599C128.449 10.9356 128.225 10.786 127.926 10.786H124.636C124.262 10.786 123.963 10.8608 123.963 11.1599C123.963 11.5338 124.561 11.5338 124.86 11.9077C125.234 12.2068 125.458 12.9546 125.757 13.7771L128.001 21.2549C128.075 21.4044 128.15 21.4044 128.3 21.4044H129.496C129.646 21.4044 129.72 21.3297 129.795 21.2549L132.786 13.2537C132.786 13.1789 132.861 13.1789 132.861 13.1789C132.861 13.1789 132.936 13.1789 132.936 13.2537L135.628 21.2549C135.703 21.3297 135.703 21.4044 135.852 21.4044H137.049C137.198 21.4044 137.273 21.3297 137.273 21.2549L139.89 14.0762C140.189 13.2537 140.488 12.5807 141.012 12.0573C141.535 11.5338 142.059 11.5338 142.059 11.1599ZM142.582 18.6377C142.582 19.2359 142.732 20.1332 143.106 20.5819C143.629 21.1053 144.975 21.554 146.321 21.554C148.863 21.554 150.509 20.0584 150.509 18.189C150.509 16.3196 149.088 15.6466 147.592 15.1979C146.097 14.6745 144.601 14.3754 144.601 13.1789C144.601 12.2068 145.498 11.6834 146.321 11.6834C147.293 11.6834 147.891 12.2816 148.34 12.8798C148.789 13.478 148.789 13.9267 149.312 13.9267C149.91 13.9267 149.91 13.2537 149.91 12.7302C149.91 12.2068 149.761 11.6086 149.237 11.1599C148.789 10.786 147.817 10.5617 146.844 10.5617C144.601 10.5617 142.806 11.9077 142.806 13.8519C142.806 17.4412 148.639 16.17 148.639 18.7872C148.639 19.6845 147.817 20.5071 146.62 20.5071C145.349 20.5071 144.676 19.7593 144.152 19.0116C143.704 18.4133 143.479 17.7403 143.031 17.7403C142.582 17.7403 142.582 18.189 142.582 18.6377ZM163.969 20.4323C161.501 20.4323 158.884 18.3386 158.884 14.0015C158.884 10.113 161.202 7.79494 163.744 7.79494C165.165 7.79494 165.988 8.39316 166.586 9.14093C167.259 9.96348 167.259 10.7113 167.932 10.7113C168.38 10.7113 168.455 10.2626 168.455 9.58959C168.455 8.69227 168.38 8.09405 168.081 7.79494C167.483 7.04716 165.688 6.67327 164.193 6.67327C160.08 6.67327 156.64 9.66437 156.64 14.151C156.64 18.1142 159.332 21.554 164.043 21.554C165.389 21.554 166.96 21.2549 167.857 20.5819C168.53 20.0584 168.68 19.0116 168.68 18.2638C168.68 17.8899 168.605 17.3665 168.081 17.3665C167.633 17.3665 167.483 17.9647 167.034 18.5629C166.661 19.2359 165.688 20.4323 163.969 20.4323ZM178.625 16.6187C178.625 18.5629 177.728 20.5071 175.783 20.5071C173.839 20.5071 172.493 18.189 172.493 15.4222C172.493 13.1789 173.615 11.6086 175.335 11.6086C177.653 11.6086 178.625 14.2258 178.625 16.6187ZM175.634 10.5617C172.568 10.5617 170.399 13.1041 170.399 16.17C170.399 19.4602 172.493 21.554 175.559 21.554C178.55 21.554 180.719 19.0116 180.719 16.0205C180.719 12.9546 178.849 10.5617 175.634 10.5617ZM185.504 17.8151V6.74805C185.504 6.37416 185.355 6.22461 185.056 6.22461C184.906 6.22461 184.831 6.29939 184.682 6.29939C184.084 6.5985 183.485 6.74805 182.738 6.89761C182.289 6.97239 182.139 7.19672 182.139 7.34627C182.139 7.5706 182.364 7.64538 182.588 7.72016C182.887 7.79494 183.112 7.94449 183.261 8.16882C183.485 8.46793 183.485 8.99138 183.485 9.81393V17.7403C183.485 18.7124 183.411 19.3854 183.261 19.8341C182.962 20.5071 182.214 20.5071 182.214 20.9558C182.214 21.2549 182.439 21.3297 182.738 21.3297H186.103C186.402 21.3297 186.701 21.2549 186.701 20.9558C186.701 20.5071 186.028 20.5819 185.654 19.8341C185.579 19.4602 185.504 18.7872 185.504 17.8151ZM191.636 17.8151V6.74805C191.636 6.37416 191.487 6.22461 191.188 6.22461C191.038 6.22461 190.963 6.29939 190.814 6.29939C190.215 6.5985 189.617 6.74805 188.869 6.89761C188.421 6.97239 188.271 7.19672 188.271 7.34627C188.271 7.5706 188.496 7.64538 188.72 7.72016C189.019 7.79494 189.243 7.94449 189.393 8.16882C189.617 8.46793 189.617 8.99138 189.617 9.81393V17.7403C189.617 18.7124 189.542 19.3854 189.393 19.8341C189.094 20.5071 188.346 20.5071 188.346 20.9558C188.346 21.2549 188.57 21.3297 188.869 21.3297H192.234C192.533 21.3297 192.833 21.2549 192.833 20.9558C192.833 20.5071 192.16 20.5819 191.786 19.8341C191.711 19.4602 191.636 18.7872 191.636 17.8151ZM196.646 14.4501C196.871 12.9546 197.917 11.6086 199.563 11.6086C200.983 11.6086 201.806 12.7302 201.806 13.6276C201.806 14.5249 201.282 14.824 200.086 14.824C200.086 14.824 196.945 14.824 196.796 14.824C196.646 14.824 196.646 14.824 196.646 14.6745C196.646 14.5997 196.646 14.5997 196.646 14.4501ZM203.227 18.7124C202.778 18.7124 201.955 20.0584 199.936 20.0584C197.768 20.0584 196.571 18.189 196.571 16.0205V15.9457C196.571 15.7961 196.646 15.7213 196.796 15.7213C196.945 15.7213 202.255 15.7213 202.255 15.7213C203.227 15.7213 203.825 15.497 203.825 14.3006C203.825 12.8798 202.628 10.5617 199.712 10.5617C196.571 10.5617 194.478 13.4032 194.478 16.3196C194.478 19.0863 196.272 21.4792 199.413 21.4792C202.105 21.4792 203.601 19.6098 203.601 19.0863C203.675 18.862 203.451 18.7124 203.227 18.7124ZM214.069 19.1611C214.069 18.9368 213.92 18.7872 213.696 18.7872C213.247 18.7872 212.574 20.1332 210.779 20.1332C208.461 20.1332 207.414 17.9647 207.414 15.7961C207.414 13.2537 208.76 11.6834 210.331 11.6834C211.377 11.6834 212.05 12.4311 212.35 12.9546C212.649 13.478 212.723 13.9267 213.247 13.9267C213.621 13.9267 213.845 13.6276 213.845 12.7302C213.845 12.2816 213.77 11.6834 213.471 11.3843C212.948 10.8608 211.751 10.6365 211.004 10.6365C207.639 10.6365 205.545 13.6276 205.545 16.7682C205.545 19.7593 207.564 21.6288 210.181 21.6288C212.723 21.554 214.069 19.6845 214.069 19.1611ZM222.295 19.2359C221.921 19.2359 221.547 20.0584 220.5 20.0584C219.678 20.0584 219.079 19.6098 218.93 18.0394C218.855 17.1421 218.855 16.4691 218.855 15.7213C218.855 15.1231 218.93 12.8798 218.93 12.6555C218.93 12.5059 219.005 12.4311 219.154 12.4311C219.528 12.4311 219.827 12.4311 220.276 12.4311C220.725 12.4311 221.173 12.5059 221.547 12.5059C222.071 12.5059 222.37 12.3564 222.445 11.9077C222.445 11.7581 222.519 11.6086 222.519 11.5338C222.519 11.2347 222.295 11.1599 221.846 11.1599C221.398 11.1599 220.874 11.2347 220.425 11.2347C219.977 11.3095 219.678 11.3095 219.379 11.3095C219.005 11.3095 218.93 11.2347 218.93 10.8608V8.61749C218.93 8.46793 218.855 8.39316 218.706 8.39316H217.808C217.659 8.39316 217.584 8.46793 217.509 8.61749C217.36 9.29049 217.285 9.81393 217.061 10.2626C216.836 10.6365 216.388 10.9356 215.49 11.1599C215.341 11.2347 215.266 11.3095 215.266 11.3843V12.0573C215.266 12.2068 215.341 12.2816 215.49 12.2816H216.761C216.911 12.2816 216.986 12.3564 216.986 12.5059C216.986 14.5249 216.836 16.3196 216.836 18.1142C216.836 19.1611 216.986 19.9837 217.434 20.5071C217.883 21.1801 218.631 21.554 219.603 21.554C220.575 21.554 221.323 21.1801 221.921 20.6567C222.37 20.2828 222.669 19.8341 222.669 19.535C222.669 19.3854 222.519 19.2359 222.295 19.2359ZM227.754 7.64538C227.754 7.19672 226.782 6.22461 226.333 6.22461C225.884 6.22461 224.912 7.19672 224.912 7.64538C224.912 8.09405 225.884 9.06615 226.333 9.06615C226.782 9.06615 227.754 8.09405 227.754 7.64538ZM227.305 17.8151V11.0851C227.305 10.7113 227.155 10.5617 226.856 10.5617C226.707 10.5617 226.632 10.6365 226.482 10.6365C225.884 10.9356 225.286 11.0851 224.538 11.2347C224.09 11.3095 223.94 11.5338 223.94 11.6834C223.94 11.9077 224.164 11.9825 224.389 12.0573C224.688 12.132 224.912 12.2816 225.062 12.5059C225.286 12.805 225.286 13.3285 225.286 14.151V17.7403C225.286 18.7124 225.211 19.3854 225.062 19.8341C224.763 20.5071 224.015 20.5071 224.015 20.9558C224.015 21.2549 224.239 21.3297 224.538 21.3297H227.903C228.202 21.3297 228.501 21.2549 228.501 20.9558C228.501 20.5071 227.828 20.5819 227.455 19.8341C227.305 19.4602 227.305 18.7872 227.305 17.8151ZM240.092 10.786H237.25C236.877 10.786 236.652 10.8608 236.652 11.1599C236.652 11.6834 237.624 11.459 237.624 12.5807C237.624 13.1789 237.325 14.0015 236.802 15.3475L235.231 19.1611C235.231 19.2359 235.157 19.2359 235.157 19.2359C235.157 19.2359 235.082 19.2359 235.082 19.1611L233.063 13.6276C232.839 13.0294 232.764 12.6555 232.764 12.3564C232.764 11.459 233.736 11.6086 233.736 11.1599C233.736 10.9356 233.586 10.786 233.212 10.786H229.922C229.474 10.786 229.249 10.9356 229.249 11.1599C229.249 11.5338 229.773 11.5338 230.147 11.9077C230.52 12.2816 230.82 12.9546 231.119 13.7771L233.885 21.2549C233.96 21.4044 234.035 21.4792 234.185 21.4792H235.231C235.381 21.4792 235.456 21.4044 235.531 21.3297L238.596 14.151C238.97 13.2537 239.494 12.132 240.391 11.6086C240.615 11.459 240.765 11.3843 240.765 11.1599C240.765 10.8608 240.541 10.786 240.092 10.786ZM243.382 14.4501C243.607 12.9546 244.653 11.6086 246.299 11.6086C247.719 11.6086 248.542 12.7302 248.542 13.6276C248.542 14.5249 248.018 14.824 246.822 14.824C246.822 14.824 243.681 14.824 243.532 14.824C243.382 14.824 243.382 14.824 243.382 14.6745C243.382 14.5997 243.382 14.5997 243.382 14.4501ZM249.888 18.7124C249.439 18.7124 248.617 20.0584 246.598 20.0584C244.429 20.0584 243.233 18.189 243.233 16.0205V15.9457C243.233 15.7961 243.307 15.7213 243.457 15.7213C243.606 15.7213 248.916 15.7213 248.916 15.7213C249.888 15.7213 250.486 15.497 250.486 14.3006C250.486 12.8798 249.29 10.5617 246.373 10.5617C243.233 10.5617 241.139 13.4032 241.139 16.3196C241.139 19.0863 242.933 21.4792 246.074 21.4792C248.766 21.4792 250.262 19.6098 250.262 19.0863C250.336 18.862 250.187 18.7124 249.888 18.7124Z" fill="#1B1D43"></path></svg> 