<svg width="16" height="16" viewBox="0 0 16 16" fill="none" xmlns="http://www.w3.org/2000/svg">
<path fill-rule="evenodd" clip-rule="evenodd" d="M4 1H1V4H2V2H4V1ZM12 1H15V4H14V2H12V1ZM1 15H4V14H2V12H1V15ZM12 15H15V12H14V14H12V15ZM4 12H12C12.2651 11.9997 12.5193 11.8942 12.7068 11.7068C12.8942 11.5193 12.9997 11.2651 13 11V5C12.9997 4.73488 12.8942 4.4807 12.7068 4.29323C12.5193 4.10576 12.2651 4.0003 12 4H4C3.73488 4.0003 3.4807 4.10576 3.29323 4.29323C3.10576 4.4807 3.0003 4.73488 3 5V11C3.0003 11.2651 3.10576 11.5193 3.29323 11.7068C3.4807 11.8942 3.73488 11.9997 4 12ZM4 11V5H12V11H4Z" fill="white"/>
</svg>
