<svg width="783" height="164" viewBox="0 0 783 164" fill="none" xmlns="http://www.w3.org/2000/svg">
<g clip-path="url(#clip0_1_14)">
<path d="M84.488 126.116H59.894V69.3803C59.894 62.5261 59.5471 50.9348 43.9127 50.9348C33.0272 50.9348 24.594 58.3154 24.594 72.5383V126.104H0V0.000427246H24.594V44.7863H24.9409C28.0989 37.0589 38.6374 30.2046 51.9871 30.2046C70.2531 30.2046 84.476 40.9226 84.476 61.4734V126.116H84.488Z" fill="white"/>
<path d="M137.348 128.568C112.228 128.568 89.5718 113.113 89.5718 79.3923C89.5718 45.6713 112.228 30.2163 137.348 30.2163C162.469 30.2163 185.125 45.6713 185.125 79.3923C185.125 113.113 162.469 128.568 137.348 128.568ZM137.348 50.9346C118.376 50.9346 114.872 67.4422 114.872 79.3923C114.872 91.3424 118.388 107.85 137.348 107.85C156.308 107.85 159.825 91.3424 159.825 79.3923C159.825 67.4422 156.308 50.9346 137.348 50.9346Z" fill="white"/>
<path d="M274.517 126.116H249.923V69.3803C249.923 62.5261 249.576 50.9349 233.942 50.9349C223.057 50.9349 214.623 58.3154 214.623 72.5383V126.104H190.029V32.6688H213.571V46.3654H213.918C217.255 40.7432 224.277 30.2046 242.016 30.2046C259.756 30.2046 274.517 40.9226 274.517 61.4734V126.116Z" fill="white"/>
<path d="M368.838 98.7113C362.342 121.188 343.718 128.569 327.736 128.569C301.384 128.569 281.192 115.925 281.192 77.4547C281.192 66.2104 285.056 30.2046 325.978 30.2046C344.423 30.2046 369.89 38.9848 369.89 81.6654V86.0554H305.786C306.492 93.0772 307.891 108.891 327.736 108.891C334.59 108.891 341.612 105.374 343.538 98.6993H368.826L368.838 98.7113ZM344.603 70.0861C343.203 54.978 333.538 50.4085 325.631 50.4085C314.04 50.4085 307.891 57.7891 306.48 70.0861H344.591H344.603Z" fill="white"/>
<path d="M425.933 124.537C414.342 159.143 411.184 163.701 389.748 163.701C386.41 163.701 382.199 163.521 378.683 163.354V143.676C379.735 143.856 381.314 144.023 383.42 144.023C392.379 144.023 397.296 142.791 399.58 129.968L365.154 32.6566H392.559L412.583 101.51H412.93L432.069 32.6566H458.063L425.921 124.513L425.933 124.537Z" fill="white"/>
<path d="M487.765 32.6687H503.04V50.229H487.765V100.996C487.765 106.439 487.944 108.544 497.956 108.544C499.535 108.544 501.294 108.365 503.052 108.197V126.81C499.188 126.989 495.325 127.157 491.461 127.157H488.303C467.046 127.157 463.183 119.083 463.183 106.953V50.217H450.539V32.6567H463.183V7.38092H487.777V32.6687H487.765Z" fill="white"/>
<path d="M509.715 32.6685H533.256V48.8293H533.603C538.699 39.3434 544.321 30.2163 559.25 30.2163C560.829 30.2163 562.408 30.3957 563.987 30.5632V55.5041C561.881 55.1572 559.25 55.1572 556.965 55.1572C537.826 55.1572 534.309 67.0953 534.309 77.4664V126.116H509.715V32.6685Z" fill="white"/>
<path d="M645.137 107.85C645.137 118.915 647.59 121.379 650.58 122.431V126.116H624.06C622.661 121.726 622.302 120.314 621.775 115.051C616.153 120.853 608.246 128.58 591.559 128.58C577.504 128.58 563.102 120.673 563.102 101.354C563.102 83.0883 574.693 73.7818 590.327 71.4971L612.457 68.1597C616.321 67.6333 621.07 66.0543 621.07 60.7791C621.07 50.4199 611.237 49.8936 604.909 49.8936C592.612 49.8936 590.507 57.4417 589.801 62.8964H566.092C568.903 34.2712 588.748 30.228 607.899 30.228C621.07 30.228 645.137 34.2712 645.137 57.2742V107.862V107.85ZM621.07 80.6241C618.606 82.55 614.574 84.141 604.383 85.72C595.244 87.2989 587.696 89.5837 587.696 99.7754C587.696 108.388 594.37 111.02 599.107 111.02C609.993 111.02 621.058 103.998 621.058 92.5742V80.6361L621.07 80.6241Z" fill="white"/>
<path d="M681.311 46.1976H681.658C686.227 38.817 693.069 30.2163 709.589 30.2163C730.14 30.2163 748.406 46.0301 748.406 78.3396C748.406 103.986 736.815 128.568 709.063 128.568C691.849 128.568 685.701 119.262 682.722 114.166H682.375V162.469H657.781V32.6685H681.323V46.1976H681.311ZM702.914 108.376C718.728 108.376 723.118 91.163 723.118 80.0981C723.118 65.3489 717.843 51.4729 702.22 51.4729C685.354 51.4729 681.323 66.5809 681.323 81.5096C681.323 95.3856 687.292 108.388 702.926 108.388L702.914 108.376Z" fill="white"/>
<path d="M783 126.117H756.648V100.47H783V126.117Z" fill="white"/>
</g>
<defs>
<clipPath id="clip0_1_14">
<rect width="783" height="163.701" fill="white"/>
</clipPath>
</defs>
</svg>
